<?xml version="1.0" encoding="UTF-8" standalone="no"?>
<svg
   xmlns:lc="http://www.librecad.org"
   xmlns:dc="http://purl.org/dc/elements/1.1/"
   xmlns:cc="http://creativecommons.org/ns#"
   xmlns:rdf="http://www.w3.org/1999/02/22-rdf-syntax-ns#"
   xmlns:svg="http://www.w3.org/2000/svg"
   xmlns="http://www.w3.org/2000/svg"
   xmlns:sodipodi="http://sodipodi.sourceforge.net/DTD/sodipodi-0.dtd"
   xmlns:inkscape="http://www.inkscape.org/namespaces/inkscape"
   width="8.5in"
   height="11in"
   viewBox="0 0 215.9 279.4"
   version="1.1"
   id="svg58"
   sodipodi:docname="back.svg"
   inkscape:version="0.92.4 (5da689c313, 2019-01-14)">
  <metadata
     id="metadata64">
    <rdf:RDF>
      <cc:Work
         rdf:about="">
        <dc:format>image/svg+xml</dc:format>
        <dc:type
           rdf:resource="http://purl.org/dc/dcmitype/StillImage" />
        <dc:title />
      </cc:Work>
    </rdf:RDF>
  </metadata>
  <defs
     id="defs62" />
  <sodipodi:namedview
     pagecolor="#ffffff"
     bordercolor="#666666"
     borderopacity="1"
     objecttolerance="10"
     gridtolerance="10"
     guidetolerance="10"
     inkscape:pageopacity="0"
     inkscape:pageshadow="2"
     inkscape:window-width="1920"
     inkscape:window-height="1053"
     id="namedview60"
     showgrid="false"
     units="in"
     inkscape:zoom="1.3379675"
     inkscape:cx="472.50805"
     inkscape:cy="420.9892"
     inkscape:window-x="1680"
     inkscape:window-y="0"
     inkscape:window-maximized="1"
     inkscape:current-layer="svg58" />
  <g
     lc:layername="OUTLINE"
     lc:is_locked="false"
     lc:is_construction="false"
     id="g56"
     style="fill:#050000;fill-opacity:1;stroke:none;stroke-width:1"
     transform="translate(25.542706,-874.96116)">
    <path
       d="m 46.236607,986.8 0.6,-0.6 h 38 l 0.6,0.6 h 3.2 a 1.5,1.5 0 0 1 2.973214,0 h 3.026786 a 1.5,1.5 0 0 1 2.973214,0 h 3.026789 a 1.5,1.5 0 0 1 2.97321,0 h 3.02679 a 1.5,1.5 0 0 1 2.97321,0 h 3.02679 a 1.5,1.5 0 0 1 2.97321,0 h 3.02679 a 1.5,1.5 0 0 1 2.97321,0 h 3.02679 a 1.5,1.5 0 0 1 2.97321,0 h 3.02679 a 1.5,1.5 0 0 1 2.97321,0 h 3.02679 a 1.5,1.5 0 0 1 2.97321,0 h 3.02679 a 1.5,1.5 0 0 1 2.97321,0 h 3.02679 a 1.5,1.5 0 0 1 2.97321,0 h 3.02679 a 1.5,1.5 0 0 1 2.97321,0 H 158.1 a 2.6802212,2.6802212 0 0 1 2.6,2.5 v 3.50331 a 1,1 0 1 1 0,2 v 2 a 1,1 0 1 1 0,2 v 1.99999 a 1,1 0 1 1 0,2 v 2 a 1,1 0 1 1 0,2 v 2 a 1,1 0 1 1 0,2 v 2 a 1,1 0 1 1 0,2 v 2 a 1,1 0 1 1 0,2 v 2 a 1,1 0 1 1 0,2 v 2 a 1,1 0 1 1 0,2 v 2 a 1,1 0 1 1 0,2 v 2 a 1,1 0 1 1 0,2 v 2 a 1,1 0 1 1 0,2 v 2 a 1,1 0 1 1 0,2 v 2 a 1,1 0 1 1 0,2 V 1056 H 1 v -9.1967 a 1,1 0 1 1 0,-2 v -2 a 1,1 0 1 1 0,-2 v -2 a 1,1 0 1 1 0,-2 v -2 a 1,1 0 1 1 0,-2 v -2 a 1,1 0 1 1 0,-2 v -2 a 1,1 0 1 1 0,-2 v -2 a 1,1 0 1 1 0,-2 v -2 a 1,1 0 1 1 0,-2 v -2 a 1,1 0 1 1 0,-2 v -2 a 1,1 0 1 1 0,-2 v -2 a 1,1 0 1 1 0,-2 v -2 a 1,1 0 1 1 0,-2 v -1.99999 a 1,1 0 1 1 0,-2 v -2 a 1,1 0 1 1 0,-2 V 989.3 a 2.6802212,2.6802212 0 0 1 2.6,-2.5 h 0.4633931 a 1.5,1.5 0 0 1 2.9732138,0 h 3.0267861 a 1.5,1.5 0 0 1 2.973214,0 h 3.026786 a 1.5,1.5 0 0 1 2.973214,0 h 3.026786 a 1.5,1.5 0 0 1 2.973214,0 h 3.026786 a 1.5,1.5 0 0 1 2.973214,0 h 3.026786 a 1.5,1.5 0 0 1 2.973214,0 h 3.026786 a 1.5,1.5 0 0 1 2.973214,0 z"
       id="path54"
       inkscape:connector-curvature="0"
       style="fill:#050000;fill-opacity:1;stroke:none" />
  </g>
  <g
     lc:layername="COUNTER"
     lc:is_locked="false"
     lc:is_construction="false"
     id="g10"
     style="fill:#808080;fill-opacity:1;stroke:none;stroke-width:1"
     transform="translate(25.542706,-874.96116)">
    <circle
       cx="4.8000002"
       cy="1051.9"
       r="2.55"
       id="circle2"
       style="fill:#808080;fill-opacity:1;stroke:none" />
    <circle
       cx="154.85001"
       cy="990"
       r="2.55"
       id="circle4"
       style="fill:#808080;fill-opacity:1;stroke:none" />
    <circle
       cx="156.89999"
       cy="1051.9"
       r="2.55"
       id="circle6"
       style="fill:#808080;fill-opacity:1;stroke:none" />
    <circle
       cx="6.8499999"
       cy="990"
       r="2.55"
       id="circle8"
       style="fill:#808080;fill-opacity:1;stroke:none" />
  </g>
  <g
     lc:layername="CUTOUT"
     lc:is_locked="false"
     lc:is_construction="false"
     id="g28"
     style="fill:#f9f9f9;fill-opacity:1;stroke:none;stroke-width:1"
     transform="translate(25.542706,-874.96116)">
    <path
       d="M 93.9,1004.75 H 77.45 v 17 H 93.9 Z"
       id="path12"
       inkscape:connector-curvature="0"
       style="fill:#f9f9f9;fill-opacity:1;stroke:none" />
    <path
       d="m 89.62,1039.47 h -5.14 v -3.32 h -4.86 v 3.32 h -5.14 v -3.32 h -4.86 v 3.32 h -1.745 v 8.53 h 38.575 v -8.53 h -1.97 v -3.32 h -4.86 v 3.32 h -5.14 v -3.32 h -4.86 z"
       id="path14"
       inkscape:connector-curvature="0"
       style="fill:#f9f9f9;fill-opacity:1;stroke:none" />
    <path
       d="m 95.625,1004.75 h 16.45 v 17 h -16.45 z"
       id="path16"
       inkscape:connector-curvature="0"
       style="fill:#f9f9f9;fill-opacity:1;stroke:none" />
    <path
       d="m 131.73,1007.5 h -17.01 v 14.25 h 17.01 z"
       id="path18"
       inkscape:connector-curvature="0"
       style="fill:#f9f9f9;fill-opacity:1;stroke:none" />
    <path
       d="m 133.9,1039.47 v 8.53 h 15.3 v -11.6 h -4.7 v -4 h -6.4 v 4 h -4.2 z"
       id="path20"
       inkscape:connector-curvature="0"
       style="fill:#f9f9f9;fill-opacity:1;stroke:none" />
    <path
       d="m 55.677671,1046.3601 a 2.4558,2.4558 0 0 0 2.425748,-2.0728 l 0.8382,-5.3086 a 2.4558,2.4558 0 0 0 -2.425748,-2.8388 H 20.663329 a 2.4558,2.4558 0 0 0 -2.4558,2.4558 2.4558,2.4558 0 0 0 0.03005,0.383 l 0.8382,5.3086 a 2.4558,2.4558 0 0 0 2.425748,2.0728 z"
       id="path22"
       inkscape:connector-curvature="0"
       style="fill:#f9f9f9;fill-opacity:1;stroke:none" />
    <path
       d="m 52.091619,1012.4787 a 2.4558,2.4558 0 0 0 -2.425748,-2.8388 H 27.513329 a 2.4558,2.4558 0 0 0 -2.4558,2.4558 2.4558,2.4558 0 0 0 0.03005,0.383 l 0.8382,5.3086 a 2.4558,2.4558 0 0 0 2.425748,2.0728 h 20.476142 a 2.4558,2.4558 0 0 0 2.425748,-2.0728 z"
       id="path24"
       inkscape:connector-curvature="0"
       style="fill:#f9f9f9;fill-opacity:1;stroke:none" />
    <path
       d="m 45.566318,1000.0868 0.459706,-3.98843 A 2.3368,2.3368 0 0 0 43.704593,993.494 H 31.290466 a 2.3368,2.3368 0 0 0 -2.321431,2.60437 l 0.459706,3.98843 a 2.3368,2.3368 0 0 0 2.321431,2.0692 h 11.494715 a 2.3368,2.3368 0 0 0 2.321431,-2.0692 z"
       id="path26"
       inkscape:connector-curvature="0"
       style="fill:#f9f9f9;fill-opacity:1;stroke:none" />
  </g>
  <g
     lc:layername="DB15"
     lc:is_locked="false"
     lc:is_construction="false"
     id="g38"
     style="fill:#f9f9f9;fill-opacity:1;stroke:none;stroke-width:1"
     transform="translate(25.542706,-874.96116)">
    <circle
       cx="23.99"
       cy="997.82501"
       r="1.625"
       id="circle30"
       style="fill:#f9f9f9;fill-opacity:1;stroke:none" />
    <circle
       cx="50.990002"
       cy="997.82501"
       r="1.625"
       id="circle32"
       style="fill:#f9f9f9;fill-opacity:1;stroke:none" />
    <circle
       cx="21.959999"
       cy="1014.75"
       r="1.55"
       id="circle34"
       style="fill:#f9f9f9;fill-opacity:1;stroke:none" />
    <circle
       cx="55.259998"
       cy="1014.75"
       r="1.55"
       id="circle36"
       style="fill:#f9f9f9;fill-opacity:1;stroke:none" />
  </g>
  <g
     lc:layername="DRILL"
     lc:is_locked="false"
     lc:is_construction="false"
     id="g52"
     style="fill:#ffffff;fill-opacity:1;stroke:none;stroke-width:1"
     transform="translate(25.542706,-874.96116)">
    <circle
       cx="4.8000002"
       cy="1051.9"
       r="1.6"
       id="circle40"
       style="fill:#ffffff;fill-opacity:1;stroke:none" />
    <circle
       cx="154.85001"
       cy="990"
       r="1.6"
       id="circle42"
       style="fill:#ffffff;fill-opacity:1;stroke:none" />
    <circle
       cx="156.89999"
       cy="1051.9"
       r="1.6"
       id="circle44"
       style="fill:#ffffff;fill-opacity:1;stroke:none" />
    <circle
       cx="15.11"
       cy="1041.25"
       r="1.55"
       id="circle46"
       style="fill:#ffffff;fill-opacity:1;stroke:none" />
    <circle
       cx="62.110001"
       cy="1041.25"
       r="1.55"
       id="circle48"
       style="fill:#ffffff;fill-opacity:1;stroke:none" />
    <circle
       cx="6.8499999"
       cy="990"
       r="1.6"
       id="circle50"
       style="fill:#ffffff;fill-opacity:1;stroke:none" />
  </g>
  <text
     xml:space="preserve"
     style="font-style:normal;font-variant:normal;font-weight:normal;font-stretch:normal;font-size:3.52777767px;line-height:1.25;font-family:Audiowide;-inkscape-font-specification:Audiowide;letter-spacing:0px;word-spacing:0px;fill:#f5f5f8;fill-opacity:1;stroke:none;stroke-width:0.26458332"
     x="55.517406"
     y="116.88327"
     id="text876"><tspan
       sodipodi:role="line"
       id="tspan874"
       x="55.517406"
       y="116.88327"
       style="fill:#f5f5f8;fill-opacity:1;stroke-width:0.26458332">Monitor</tspan></text>
  <text
     xml:space="preserve"
     style="font-style:normal;font-variant:normal;font-weight:normal;font-stretch:normal;font-size:3.52777767px;line-height:1.25;font-family:Audiowide;-inkscape-font-specification:Audiowide;letter-spacing:0px;word-spacing:0px;fill:#f5f5f8;fill-opacity:1;stroke:none;stroke-width:0.26458332"
     x="60.658916"
     y="159.59729"
     id="text880"><tspan
       sodipodi:role="line"
       id="tspan878"
       x="60.658916"
       y="159.59729"
       style="fill:#f5f5f8;fill-opacity:1;stroke-width:0.26458332">I/O</tspan></text>
  <text
     xml:space="preserve"
     style="font-style:normal;font-variant:normal;font-weight:normal;font-stretch:normal;font-size:3.52777767px;line-height:1.25;font-family:Audiowide;-inkscape-font-specification:Audiowide;letter-spacing:0px;word-spacing:0px;fill:#f5f5f8;fill-opacity:1;stroke:none;stroke-width:0.26458332"
     x="55.31966"
     y="133.09877"
     id="text884"><tspan
       sodipodi:role="line"
       id="tspan882"
       x="55.31966"
       y="133.09877"
       style="fill:#f5f5f8;fill-opacity:1;stroke-width:0.26458332">AUX I/O</tspan></text>
  <text
     xml:space="preserve"
     style="font-style:normal;font-variant:normal;font-weight:normal;font-stretch:normal;font-size:3.52777767px;line-height:1.25;font-family:Audiowide;-inkscape-font-specification:Audiowide;letter-spacing:0px;word-spacing:0px;fill:#f5f5f8;fill-opacity:1;stroke:none;stroke-width:0.26458332"
     x="94.869713"
     y="159.59731"
     id="text888"><tspan
       sodipodi:role="line"
       id="tspan886"
       x="94.869713"
       y="159.59731"
       style="fill:#f5f5f8;fill-opacity:1;stroke-width:0.26458332">M0</tspan></text>
  <text
     xml:space="preserve"
     style="font-style:normal;font-variant:normal;font-weight:normal;font-stretch:normal;font-size:3.52777767px;line-height:1.25;font-family:Audiowide;-inkscape-font-specification:Audiowide;letter-spacing:0px;word-spacing:0px;fill:#f5f5f8;fill-opacity:1;stroke:none;stroke-width:0.26458332"
     x="105.54821"
     y="159.59729"
     id="text892"><tspan
       sodipodi:role="line"
       id="tspan890"
       x="105.54821"
       y="159.59729"
       style="fill:#f5f5f8;fill-opacity:1;stroke-width:0.26458332">M1</tspan></text>
  <text
     xml:space="preserve"
     style="font-style:normal;font-variant:normal;font-weight:normal;font-stretch:normal;font-size:3.52777767px;line-height:1.25;font-family:Audiowide;-inkscape-font-specification:Audiowide;letter-spacing:0px;word-spacing:0px;fill:#f5f5f8;fill-opacity:1;stroke:none;stroke-width:0.26458332"
     x="114.24923"
     y="159.79504"
     id="text896"><tspan
       sodipodi:role="line"
       id="tspan894"
       x="114.24923"
       y="159.79504"
       style="fill:#f5f5f8;fill-opacity:1;stroke-width:0.26458332">M2</tspan></text>
  <text
     xml:space="preserve"
     style="font-style:normal;font-variant:normal;font-weight:normal;font-stretch:normal;font-size:3.52777767px;line-height:1.25;font-family:Audiowide;-inkscape-font-specification:Audiowide;letter-spacing:0px;word-spacing:0px;fill:#f5f5f8;fill-opacity:1;stroke:none;stroke-width:0.26458332"
     x="124.33448"
     y="159.79504"
     id="text900"><tspan
       sodipodi:role="line"
       id="tspan898"
       x="124.33448"
       y="159.79504"
       style="fill:#f5f5f8;fill-opacity:1;stroke-width:0.26458332">M3</tspan></text>
  <text
     xml:space="preserve"
     style="font-style:normal;font-variant:normal;font-weight:normal;font-stretch:normal;font-size:3.52777767px;line-height:1.25;font-family:Audiowide;-inkscape-font-specification:Audiowide;text-align:center;letter-spacing:0px;word-spacing:0px;text-anchor:middle;fill:#f5f5f8;fill-opacity:1;stroke:none;stroke-width:0.26458332"
     x="166.05977"
     y="150.69853"
     id="text918"><tspan
       sodipodi:role="line"
       id="tspan916"
       x="166.05977"
       y="150.69853"
       style="fill:#f5f5f8;fill-opacity:1;stroke-width:0.26458332">24-48</tspan><tspan
       sodipodi:role="line"
       x="166.05977"
       y="155.10826"
       style="fill:#f5f5f8;fill-opacity:1;stroke-width:0.26458332"
       id="tspan920">VDC</tspan></text>
  <text
     xml:space="preserve"
     style="font-style:normal;font-variant:normal;font-weight:normal;font-stretch:normal;font-size:3.52777767px;line-height:1.25;font-family:Audiowide;-inkscape-font-specification:Audiowide;text-align:center;letter-spacing:0px;word-spacing:0px;text-anchor:middle;fill:#f5f5f8;fill-opacity:1;stroke:none;stroke-width:0.26458332"
     x="110.68972"
     y="128.35277"
     id="text924"><tspan
       sodipodi:role="line"
       id="tspan922"
       x="110.68972"
       y="128.35277"
       style="fill:#f5f5f8;fill-opacity:1;stroke-width:0.26458332">USB2</tspan></text>
  <text
     xml:space="preserve"
     style="font-style:normal;font-variant:normal;font-weight:normal;font-stretch:normal;font-size:3.52777767px;line-height:1.25;font-family:Audiowide;-inkscape-font-specification:Audiowide;text-align:center;letter-spacing:0px;word-spacing:0px;text-anchor:middle;fill:#f5f5f8;fill-opacity:1;stroke:none;stroke-width:0.26458332"
     x="128.48723"
     y="127.95727"
     id="text928"><tspan
       sodipodi:role="line"
       id="tspan926"
       x="128.48723"
       y="127.95727"
       style="fill:#f5f5f8;fill-opacity:1;stroke-width:0.26458332">USB3</tspan></text>
  <text
     xml:space="preserve"
     style="font-style:normal;font-variant:normal;font-weight:normal;font-stretch:normal;font-size:3.52777767px;line-height:1.25;font-family:Audiowide;-inkscape-font-specification:Audiowide;text-align:center;letter-spacing:0px;word-spacing:0px;text-anchor:middle;fill:#f5f5f8;fill-opacity:1;stroke:none;stroke-width:0.26458332"
     x="147.86674"
     y="130.33028"
     id="text932"><tspan
       sodipodi:role="line"
       id="tspan930"
       x="147.86674"
       y="130.33028"
       style="fill:#f5f5f8;fill-opacity:1;stroke-width:0.26458332">Enet</tspan></text>
  <text
     xml:space="preserve"
     style="font-style:normal;font-variant:normal;font-weight:normal;font-stretch:normal;font-size:3.52777767px;line-height:10;font-family:sans-serif;-inkscape-font-specification:sans-serif;text-align:center;letter-spacing:0px;word-spacing:0px;text-anchor:middle;fill:#000000;fill-opacity:1;stroke:none;stroke-width:0.26458332"
     x="86.021339"
     y="33.398746"
     id="text936"><tspan
       sodipodi:role="line"
       id="tspan934"
       x="86.021339"
       y="51.954029"
       style="stroke-width:0.26458332" /></text>
  <text
     xml:space="preserve"
     style="font-style:normal;font-variant:normal;font-weight:normal;font-stretch:normal;font-size:16.93333244px;line-height:125%;font-family:'Liberation Serif';-inkscape-font-specification:'Liberation Serif, Normal';text-align:start;letter-spacing:0px;word-spacing:0px;writing-mode:lr-tb;text-anchor:start;display:inline;fill:#000000;fill-opacity:1;stroke:none;stroke-width:0.28222221px;stroke-linecap:butt;stroke-linejoin:miter;stroke-opacity:1"
     x="84.168144"
     y="58.925911"
     id="text17732"><tspan
       style="stroke-width:0.28222221px"
       sodipodi:role="line"
       id="tspan17734"
       x="84.168144"
       y="58.925911">Back</tspan></text>
  <text
     xml:space="preserve"
     style="font-style:normal;font-variant:normal;font-weight:normal;font-stretch:normal;font-size:3.52777767px;line-height:1.25;font-family:Audiowide;-inkscape-font-specification:Audiowide;letter-spacing:0px;word-spacing:0px;fill:#050500;fill-opacity:1;stroke:none;stroke-width:0.26458332;"
     x="179.95268"
     y="163.71614"
     id="text868"><tspan
       sodipodi:role="line"
       id="tspan866"
       x="179.95268"
       y="166.89583"
       style="stroke-width:0.26458332;fill:#050500;fill-opacity:1;" /></text>
  <text
     xml:space="preserve"
     style="font-style:normal;font-variant:normal;font-weight:normal;font-stretch:normal;font-size:3.52777767px;line-height:1.25;font-family:Audiowide;-inkscape-font-specification:Audiowide;letter-spacing:0px;word-spacing:0px;fill:#f5f5f8;fill-opacity:1;stroke:none;stroke-width:0.26458332"
     x="176.21675"
     y="165.86139"
     id="text877"><tspan
       sodipodi:role="line"
       id="tspan875"
       x="176.21675"
       y="165.86139"
       style="fill:#f5f5f8;fill-opacity:1;stroke-width:0.26458332">-</tspan></text>
  <flowRoot
     xml:space="preserve"
     id="flowRoot879"
     style="fill:black;fill-opacity:1;stroke:none;font-family:Audiowide;font-style:normal;font-weight:normal;font-size:13.33333333px;line-height:1.25;letter-spacing:0px;word-spacing:0px;-inkscape-font-specification:Audiowide;font-stretch:normal;font-variant:normal"><flowRegion
       id="flowRegion881"><rect
         id="rect883"
         width="45.591541"
         height="32.138302"
         x="735.44391"
         y="589.62097" /></flowRegion><flowPara
       id="flowPara885"></flowPara></flowRoot>  <flowRoot
     xml:space="preserve"
     id="flowRoot887"
     style="fill:black;fill-opacity:1;stroke:none;font-family:Audiowide;font-style:normal;font-weight:normal;font-size:13.33333333px;line-height:1.25;letter-spacing:0px;word-spacing:0px;-inkscape-font-specification:Audiowide;font-stretch:normal;font-variant:normal"><flowRegion
       id="flowRegion889"><rect
         id="rect891"
         width="45.591541"
         height="27.653887"
         x="736.93872"
         y="610.54822" /></flowRegion><flowPara
       id="flowPara893"></flowPara></flowRoot>  <text
     xml:space="preserve"
     style="font-style:normal;font-variant:normal;font-weight:normal;font-stretch:normal;font-size:3.52777767px;line-height:1.25;font-family:Audiowide;-inkscape-font-specification:Audiowide;letter-spacing:0px;word-spacing:0px;fill:#f5f5f8;fill-opacity:1;stroke:none;stroke-width:0.26458332"
     x="176.3602"
     y="171.90741"
     id="text877-3"><tspan
       sodipodi:role="line"
       id="tspan875-6"
       x="176.3602"
       y="171.90741"
       style="fill:#f5f5f8;fill-opacity:1;stroke-width:0.26458332">+</tspan></text>
</svg>
