<?xml version="1.0" encoding="UTF-8" standalone="no"?>
<!-- Created with Inkscape (http://www.inkscape.org/) -->

<svg
   xmlns:dc="http://purl.org/dc/elements/1.1/"
   xmlns:cc="http://creativecommons.org/ns#"
   xmlns:rdf="http://www.w3.org/1999/02/22-rdf-syntax-ns#"
   xmlns:svg="http://www.w3.org/2000/svg"
   xmlns="http://www.w3.org/2000/svg"
   xmlns:sodipodi="http://sodipodi.sourceforge.net/DTD/sodipodi-0.dtd"
   xmlns:inkscape="http://www.inkscape.org/namespaces/inkscape"
   id="svg12110"
   version="1.1"
   inkscape:version="0.91 r13725"
   xml:space="preserve"
   width="990"
   height="765"
   viewBox="0 0 990.00002 765.00001"
   sodipodi:docname="back.svg"><metadata
     id="metadata12116"><rdf:RDF><cc:Work
         rdf:about=""><dc:format>image/svg+xml</dc:format><dc:type
           rdf:resource="http://purl.org/dc/dcmitype/StillImage" /><dc:title /></cc:Work></rdf:RDF></metadata><defs
     id="defs12114"><marker
       style="overflow:visible"
       refY="0.0"
       refX="0.0"
       orient="auto"
       id="DistanceX"><path
         id="path9301"
         style="stroke:#000000; stroke-width:0.5"
         d="M 3,-3 L -3,3 M 0,-5 L  0,5" /></marker><pattern
       y="0"
       x="0"
       width="8"
       patternUnits="userSpaceOnUse"
       id="Hatch"
       height="8"><path
         id="path9304"
         stroke-width="0.25"
         stroke="#000000"
         linecap="square"
         d="M8 4 l-4,4" /><path
         id="path9306"
         stroke-width="0.25"
         stroke="#000000"
         linecap="square"
         d="M6 2 l-4,4" /><path
         id="path9308"
         stroke-width="0.25"
         stroke="#000000"
         linecap="square"
         d="M4 0 l-4,4" /></pattern><symbol
       id="*Model_Space" /><symbol
       id="*Paper_Space" /><marker
       style="overflow:visible"
       refY="0.0"
       refX="0.0"
       orient="auto"
       id="DistanceX-3"><path
         id="path10280"
         style="stroke:#000000; stroke-width:0.5"
         d="M 3,-3 L -3,3 M 0,-5 L  0,5" /></marker><pattern
       y="0"
       x="0"
       width="8"
       patternUnits="userSpaceOnUse"
       id="Hatch-6"
       height="8"><path
         id="path10283"
         stroke-width="0.25"
         stroke="#000000"
         linecap="square"
         d="M8 4 l-4,4" /><path
         id="path10285"
         stroke-width="0.25"
         stroke="#000000"
         linecap="square"
         d="M6 2 l-4,4" /><path
         id="path10287"
         stroke-width="0.25"
         stroke="#000000"
         linecap="square"
         d="M4 0 l-4,4" /></pattern><symbol
       id="$MODEL_SPACE" /><symbol
       id="$PAPER_SPACE" /><marker
       style="overflow:visible"
       refY="0.0"
       refX="0.0"
       orient="auto"
       id="DistanceX-4"><path
         id="path13321"
         style="stroke:#000000; stroke-width:0.5"
         d="M 3,-3 L -3,3 M 0,-5 L  0,5" /></marker><pattern
       y="0"
       x="0"
       width="8"
       patternUnits="userSpaceOnUse"
       id="Hatch-9"
       height="8"><path
         id="path13324"
         stroke-width="0.25"
         stroke="#000000"
         linecap="square"
         d="M8 4 l-4,4" /><path
         id="path13326"
         stroke-width="0.25"
         stroke="#000000"
         linecap="square"
         d="M6 2 l-4,4" /><path
         id="path13328"
         stroke-width="0.25"
         stroke="#000000"
         linecap="square"
         d="M4 0 l-4,4" /></pattern><symbol
       id="*Model_Space-2" /><symbol
       id="*Paper_Space-4" /><marker
       style="overflow:visible"
       refY="0.0"
       refX="0.0"
       orient="auto"
       id="DistanceX-7"><path
         id="path14676"
         style="stroke:#000000; stroke-width:0.5"
         d="M 3,-3 L -3,3 M 0,-5 L  0,5" /></marker><pattern
       y="0"
       x="0"
       width="8"
       patternUnits="userSpaceOnUse"
       id="Hatch-0"
       height="8"><path
         id="path14679"
         stroke-width="0.25"
         stroke="#000000"
         linecap="square"
         d="M8 4 l-4,4" /><path
         id="path14681"
         stroke-width="0.25"
         stroke="#000000"
         linecap="square"
         d="M6 2 l-4,4" /><path
         id="path14683"
         stroke-width="0.25"
         stroke="#000000"
         linecap="square"
         d="M4 0 l-4,4" /></pattern><symbol
       id="*Model_Space-5" /><symbol
       id="*Paper_Space-1" /><marker
       style="overflow:visible"
       refY="0.0"
       refX="0.0"
       orient="auto"
       id="DistanceX-30"><path
         id="path16281"
         style="stroke:#000000; stroke-width:0.5"
         d="M 3,-3 L -3,3 M 0,-5 L  0,5" /></marker><pattern
       y="0"
       x="0"
       width="8"
       patternUnits="userSpaceOnUse"
       id="Hatch-04"
       height="8"><path
         id="path16284"
         stroke-width="0.25"
         stroke="#000000"
         linecap="square"
         d="M8 4 l-4,4" /><path
         id="path16286"
         stroke-width="0.25"
         stroke="#000000"
         linecap="square"
         d="M6 2 l-4,4" /><path
         id="path16288"
         stroke-width="0.25"
         stroke="#000000"
         linecap="square"
         d="M4 0 l-4,4" /></pattern><symbol
       id="*Model_Space-54" /><symbol
       id="*Paper_Space-2" /><marker
       style="overflow:visible"
       refY="0.0"
       refX="0.0"
       orient="auto"
       id="DistanceX-72"><path
         id="path18072"
         style="stroke:#000000; stroke-width:0.5"
         d="M 3,-3 L -3,3 M 0,-5 L  0,5" /></marker><pattern
       y="0"
       x="0"
       width="8"
       patternUnits="userSpaceOnUse"
       id="Hatch-2"
       height="8"><path
         id="path18075"
         stroke-width="0.25"
         stroke="#000000"
         linecap="square"
         d="M8 4 l-4,4" /><path
         id="path18077"
         stroke-width="0.25"
         stroke="#000000"
         linecap="square"
         d="M6 2 l-4,4" /><path
         id="path18079"
         stroke-width="0.25"
         stroke="#000000"
         linecap="square"
         d="M4 0 l-4,4" /></pattern><symbol
       id="*Model_Space-9" /><symbol
       id="*Paper_Space-28" /><marker
       style="overflow:visible"
       refY="0.0"
       refX="0.0"
       orient="auto"
       id="DistanceX-70"><path
         id="path7446"
         style="stroke:#000000; stroke-width:0.5"
         d="M 3,-3 L -3,3 M 0,-5 L  0,5" /></marker><pattern
       y="0"
       x="0"
       width="8"
       patternUnits="userSpaceOnUse"
       id="Hatch-93"
       height="8"><path
         id="path7449"
         stroke-width="0.25"
         stroke="#000000"
         linecap="square"
         d="M8 4 l-4,4" /><path
         id="path7451"
         stroke-width="0.25"
         stroke="#000000"
         linecap="square"
         d="M6 2 l-4,4" /><path
         id="path7453"
         stroke-width="0.25"
         stroke="#000000"
         linecap="square"
         d="M4 0 l-4,4" /></pattern><symbol
       id="*Model_Space-6" /><symbol
       id="*Paper_Space-0" /><marker
       style="overflow:visible"
       refY="0.0"
       refX="0.0"
       orient="auto"
       id="DistanceX-37"><path
         id="path32814"
         style="stroke:#000000; stroke-width:0.5"
         d="M 3,-3 L -3,3 M 0,-5 L  0,5" /></marker><pattern
       y="0"
       x="0"
       width="8"
       patternUnits="userSpaceOnUse"
       id="Hatch-5"
       height="8"><path
         id="path32817"
         stroke-width="0.25"
         stroke="#000000"
         linecap="square"
         d="M8 4 l-4,4" /><path
         id="path32819"
         stroke-width="0.25"
         stroke="#000000"
         linecap="square"
         d="M6 2 l-4,4" /><path
         id="path32821"
         stroke-width="0.25"
         stroke="#000000"
         linecap="square"
         d="M4 0 l-4,4" /></pattern><symbol
       id="*Model_Space-92" /><symbol
       id="*Paper_Space-289" /><symbol
       id="10127716-04lfc"><path
         id="path32826"
         style="stroke:#000000;fill:none;stroke-linecap: round"
         d="M 0.000000,1052.362205 27.814961,1052.362205" /><path
         id="path32828"
         style="stroke:#000000;fill:none;stroke-linecap: round"
         d="M 0.000000,1024.795276 5.297244,1024.795276" /><path
         id="path32830"
         style="stroke:#000000;fill:none;stroke-linecap: round"
         d="M 5.297244,1024.795276 5.297244,1016.574803" /><path
         id="path32832"
         style="stroke:#000000;fill:none;stroke-linecap: round"
         d="M 22.517717,1024.795276 22.517717,1016.574803" /><path
         id="path32834"
         style="stroke:#000000;fill:none;stroke-linecap: round"
         d="M 5.297244,1016.574803 22.517717,1016.574803" /><path
         id="path32836"
         style="stroke:#000000;fill:none;stroke-linecap: round"
         d="M 0.000000,1024.795276 0.000000,1052.362205" /><path
         id="path32838"
         style="stroke:#000000;fill:none;stroke-linecap: round"
         d="M 27.814961,1052.362205 27.814961,1024.795276" /><path
         id="path32840"
         style="stroke:#000000;fill:none;stroke-linecap: round"
         d="M 22.517717,1024.795276 27.814961,1024.795276" /></symbol><symbol
       id="10127716-06lfc"><path
         id="path32843"
         style="stroke:#000000;fill:none;stroke-linecap: round"
         d="M 38.444882,1052.362205 0.000000,1052.362205" /><path
         id="path32845"
         style="stroke:#000000;fill:none;stroke-linecap: round"
         d="M 10.612205,1024.795276 0.000000,1024.795276" /><path
         id="path32847"
         style="stroke:#000000;fill:none;stroke-linecap: round"
         d="M 10.612205,1024.795276 10.612205,1016.574803" /><path
         id="path32849"
         style="stroke:#000000;fill:none;stroke-linecap: round"
         d="M 27.832677,1016.574803 27.832677,1024.795276" /><path
         id="path32851"
         style="stroke:#000000;fill:none;stroke-linecap: round"
         d="M 10.612205,1016.574803 27.832677,1016.574803" /><path
         id="path32853"
         style="stroke:#000000;fill:none;stroke-linecap: round"
         d="M 0.000000,1052.362205 0.000000,1024.795276" /><path
         id="path32855"
         style="stroke:#000000;fill:none;stroke-linecap: round"
         d="M 38.444882,1024.795276 38.444882,1052.362205" /><path
         id="path32857"
         style="stroke:#000000;fill:none;stroke-linecap: round"
         d="M 38.444882,1024.795276 27.832677,1024.795276" /></symbol><symbol
       id="039012060"><path
         id="path32860"
         style="stroke:#000000;fill:none;stroke-linecap: round"
         d="M 0.000000,1052.362205 52.440945,1052.362205" /><path
         id="path32862"
         style="stroke:#000000;fill:none;stroke-linecap: round"
         d="M 0.000000,1014.803150 14.881890,1014.803150" /><path
         id="path32864"
         style="stroke:#000000;fill:none;stroke-linecap: round"
         d="M 14.881890,1005.767717 37.559055,1005.767717" /><path
         id="path32866"
         style="stroke:#000000;fill:none;stroke-linecap: round"
         d="M 14.881890,1005.767717 14.881890,1014.803150" /><path
         id="path32868"
         style="stroke:#000000;fill:none;stroke-linecap: round"
         d="M 37.559055,1005.767717 37.559055,1014.803150" /><path
         id="path32870"
         style="stroke:#000000;fill:none;stroke-linecap: round"
         d="M 0.000000,1014.803150 0.000000,1052.362205" /><path
         id="path32872"
         style="stroke:#000000;fill:none;stroke-linecap: round"
         d="M 52.440945,1014.803150 52.440945,1052.362205" /><path
         id="path32874"
         style="stroke:#000000;fill:none;stroke-linecap: round"
         d="M 37.559055,1014.803150 52.440945,1014.803150" /></symbol><symbol
       id="182-025-113"><path
         id="path32877"
         style="stroke:#000000;fill:none;stroke-linecap: round"
         d="M -69.143454,1045.017683 A 8.701654,8.701654 -0.000000 0 0 -60.548283,1052.362205" /><path
         id="path32879"
         style="stroke:#000000;fill:none;stroke-linecap: round"
         d="M -60.548283,1052.362205 60.548283,1052.362205" /><path
         id="path32881"
         style="stroke:#000000;fill:none;stroke-linecap: round"
         d="M -72.113454,1026.207683 -69.143454,1045.017683" /><path
         id="path32883"
         style="stroke:#000000;fill:none;stroke-linecap: round"
         d="M 60.548283,1052.362205 A 8.701654,8.701654 -0.000000 0 0 69.143454,1045.017683" /><path
         id="path32885"
         style="stroke:#000000;fill:none;stroke-linecap: round"
         d="M 69.143454,1045.017683 72.113454,1026.207683" /><path
         id="path32887"
         style="stroke:#000000;fill:none;stroke-linecap: round"
         d="M 72.113454,1026.207683 A 8.701654,8.701654 -0.000000 0 0 63.518283,1016.148898" /><path
         id="path32889"
         style="stroke:#000000;fill:none;stroke-linecap: round"
         d="M 63.518283,1016.148898 -63.518283,1016.148898" /><path
         id="path32891"
         style="stroke:#000000;fill:none;stroke-linecap: round"
         d="M -63.518283,1016.148898 A 8.701654,8.701654 -0.000000 0 0 -72.219936,1024.850551" /><path
         id="path32893"
         style="stroke:#000000;fill:none;stroke-linecap: round"
         d="M -72.219936,1024.850551 A 8.701654,8.701654 -0.000000 0 0 -72.113454,1026.207683" /></symbol><marker
       style="overflow:visible"
       refY="0.0"
       refX="0.0"
       orient="auto"
       id="DistanceX-73"><path
         id="path34830"
         style="stroke:#000000; stroke-width:0.5"
         d="M 3,-3 L -3,3 M 0,-5 L  0,5" /></marker><pattern
       y="0"
       x="0"
       width="8"
       patternUnits="userSpaceOnUse"
       id="Hatch-61"
       height="8"><path
         id="path34833"
         stroke-width="0.25"
         stroke="#000000"
         linecap="square"
         d="M8 4 l-4,4" /><path
         id="path34835"
         stroke-width="0.25"
         stroke="#000000"
         linecap="square"
         d="M6 2 l-4,4" /><path
         id="path34837"
         stroke-width="0.25"
         stroke="#000000"
         linecap="square"
         d="M4 0 l-4,4" /></pattern><symbol
       id="*Model_Space-29" /><symbol
       id="*Paper_Space-3" /><symbol
       id="10127716-04lfc-1"><path
         id="path34842"
         style="stroke:#000000;fill:none;stroke-linecap: round"
         d="M 0.000000,1052.362205 27.814961,1052.362205" /><path
         id="path34844"
         style="stroke:#000000;fill:none;stroke-linecap: round"
         d="M 0.000000,1024.795276 5.297244,1024.795276" /><path
         id="path34846"
         style="stroke:#000000;fill:none;stroke-linecap: round"
         d="M 5.297244,1024.795276 5.297244,1016.574803" /><path
         id="path34848"
         style="stroke:#000000;fill:none;stroke-linecap: round"
         d="M 22.517717,1024.795276 22.517717,1016.574803" /><path
         id="path34850"
         style="stroke:#000000;fill:none;stroke-linecap: round"
         d="M 5.297244,1016.574803 22.517717,1016.574803" /><path
         id="path34852"
         style="stroke:#000000;fill:none;stroke-linecap: round"
         d="M 0.000000,1024.795276 0.000000,1052.362205" /><path
         id="path34854"
         style="stroke:#000000;fill:none;stroke-linecap: round"
         d="M 27.814961,1052.362205 27.814961,1024.795276" /><path
         id="path34856"
         style="stroke:#000000;fill:none;stroke-linecap: round"
         d="M 22.517717,1024.795276 27.814961,1024.795276" /></symbol><symbol
       id="10127716-06lfc-9"><path
         id="path34859"
         style="stroke:#000000;fill:none;stroke-linecap: round"
         d="M 38.444882,1052.362205 0.000000,1052.362205" /><path
         id="path34861"
         style="stroke:#000000;fill:none;stroke-linecap: round"
         d="M 10.612205,1024.795276 0.000000,1024.795276" /><path
         id="path34863"
         style="stroke:#000000;fill:none;stroke-linecap: round"
         d="M 10.612205,1024.795276 10.612205,1016.574803" /><path
         id="path34865"
         style="stroke:#000000;fill:none;stroke-linecap: round"
         d="M 27.832677,1016.574803 27.832677,1024.795276" /><path
         id="path34867"
         style="stroke:#000000;fill:none;stroke-linecap: round"
         d="M 10.612205,1016.574803 27.832677,1016.574803" /><path
         id="path34869"
         style="stroke:#000000;fill:none;stroke-linecap: round"
         d="M 0.000000,1052.362205 0.000000,1024.795276" /><path
         id="path34871"
         style="stroke:#000000;fill:none;stroke-linecap: round"
         d="M 38.444882,1024.795276 38.444882,1052.362205" /><path
         id="path34873"
         style="stroke:#000000;fill:none;stroke-linecap: round"
         d="M 38.444882,1024.795276 27.832677,1024.795276" /></symbol><symbol
       id="039012060-4"><path
         id="path34876"
         style="stroke:#000000;fill:none;stroke-linecap: round"
         d="M 0.000000,1052.362205 52.440945,1052.362205" /><path
         id="path34878"
         style="stroke:#000000;fill:none;stroke-linecap: round"
         d="M 0.000000,1014.803150 14.881890,1014.803150" /><path
         id="path34880"
         style="stroke:#000000;fill:none;stroke-linecap: round"
         d="M 14.881890,1005.767717 37.559055,1005.767717" /><path
         id="path34882"
         style="stroke:#000000;fill:none;stroke-linecap: round"
         d="M 14.881890,1005.767717 14.881890,1014.803150" /><path
         id="path34884"
         style="stroke:#000000;fill:none;stroke-linecap: round"
         d="M 37.559055,1005.767717 37.559055,1014.803150" /><path
         id="path34886"
         style="stroke:#000000;fill:none;stroke-linecap: round"
         d="M 0.000000,1014.803150 0.000000,1052.362205" /><path
         id="path34888"
         style="stroke:#000000;fill:none;stroke-linecap: round"
         d="M 52.440945,1014.803150 52.440945,1052.362205" /><path
         id="path34890"
         style="stroke:#000000;fill:none;stroke-linecap: round"
         d="M 37.559055,1014.803150 52.440945,1014.803150" /></symbol><symbol
       id="182-025-113-7"><path
         id="path34893"
         style="stroke:#000000;fill:none;stroke-linecap: round"
         d="M -69.143454,1045.017683 A 8.701654,8.701654 -0.000000 0 0 -60.548283,1052.362205" /><path
         id="path34895"
         style="stroke:#000000;fill:none;stroke-linecap: round"
         d="M -60.548283,1052.362205 60.548283,1052.362205" /><path
         id="path34897"
         style="stroke:#000000;fill:none;stroke-linecap: round"
         d="M -72.113454,1026.207683 -69.143454,1045.017683" /><path
         id="path34899"
         style="stroke:#000000;fill:none;stroke-linecap: round"
         d="M 60.548283,1052.362205 A 8.701654,8.701654 -0.000000 0 0 69.143454,1045.017683" /><path
         id="path34901"
         style="stroke:#000000;fill:none;stroke-linecap: round"
         d="M 69.143454,1045.017683 72.113454,1026.207683" /><path
         id="path34903"
         style="stroke:#000000;fill:none;stroke-linecap: round"
         d="M 72.113454,1026.207683 A 8.701654,8.701654 -0.000000 0 0 63.518283,1016.148898" /><path
         id="path34905"
         style="stroke:#000000;fill:none;stroke-linecap: round"
         d="M 63.518283,1016.148898 -63.518283,1016.148898" /><path
         id="path34907"
         style="stroke:#000000;fill:none;stroke-linecap: round"
         d="M -63.518283,1016.148898 A 8.701654,8.701654 -0.000000 0 0 -72.219936,1024.850551" /><path
         id="path34909"
         style="stroke:#000000;fill:none;stroke-linecap: round"
         d="M -72.219936,1024.850551 A 8.701654,8.701654 -0.000000 0 0 -72.113454,1026.207683" /></symbol></defs><sodipodi:namedview
     pagecolor="#ffffff"
     bordercolor="#666666"
     borderopacity="1"
     objecttolerance="10"
     gridtolerance="10"
     guidetolerance="10"
     inkscape:pageopacity="0"
     inkscape:pageshadow="2"
     inkscape:window-width="1920"
     inkscape:window-height="1051"
     id="namedview12112"
     showgrid="false"
     inkscape:zoom="3.0206862"
     inkscape:cx="612.60124"
     inkscape:cy="339.67296"
     inkscape:window-x="0"
     inkscape:window-y="0"
     inkscape:window-maximized="1"
     inkscape:current-layer="layer4"
     showguides="false"
     inkscape:guide-bbox="true" /><g
     inkscape:groupmode="layer"
     id="layer6"
     inkscape:label="back filled"
     style="display:inline"
     transform="translate(0,20.905518)"><g
       inkscape:label="0"
       id="g7527"
       transform="translate(818.77559,-437.3697)" /><g
       inkscape:label="scratch"
       id="g7805"
       transform="translate(818.77559,-437.3697)" /><path
       id="path35159"
       style="fill:#000000;fill-opacity:1;stroke:none;stroke-linecap:round"
       d="m 777.9331,486.49622 0,-32.5867 c 4.7147,-0.01 4.7147,-7.0769 0,-7.0866 l 0,-7.0866 c 4.7244,0 4.7244,-7.08662 0,-7.08662 l 0,-7.08661 c 4.7244,0 4.7244,-7.08662 0,-7.08662 l 0,-7.08661 c 4.7244,0 4.7244,-7.08662 0,-7.08662 l 0,-7.08661 c 4.7194,-0.005 4.7194,-7.0816 0,-7.08661 l 0,-7.08662 c 4.7194,-0.005 4.7194,-7.0816 0,-7.08661 l 0,-7.08661 c 4.7244,0 4.7244,-7.08662 0,-7.08662 l 0,-7.08661 c 4.7244,0 4.7244,-7.08662 0,-7.08662 l 0,-7.08661 c 4.7244,0 4.7244,-7.08662 0,-7.08662 l 0,-7.08661 c 4.7188,-0.006 4.7188,-7.081 0,-7.08661 l 0,-7.08662 c 4.7194,-0.005 4.7194,-7.0816 0,-7.08661 l 0,-7.08662 c 4.7194,-0.005 4.7194,-7.0816 0,-7.08661 l 0,-7.08662 c 4.7194,-0.005 4.7194,-7.0816 0,-7.08661 l 0,-7.08661 c 4.7244,0 4.7244,-7.08662 0,-7.08662 l 0,-12.41332 c -0.3274,-4.88648 -4.317,-8.72264 -9.2126,-8.85827 l -1.7369,0 c -0.8263,-6.14168 -9.7087,-6.14168 -10.535,0 l -10.7248,0 c -0.8263,-6.14168 -9.7087,-6.14168 -10.535,0 l -10.7249,0 c -0.8263,-6.14168 -9.7087,-6.14168 -10.535,0 l -10.7248,0 c -0.8263,-6.14168 -9.7087,-6.14168 -10.535,0 l -10.7248,0 c -0.8259,-6.14218 -9.7092,-6.14218 -10.5351,0 l -10.7248,0 c -0.8263,-6.14168 -9.7087,-6.14168 -10.535,0 l -10.7248,0 c -0.8263,-6.14168 -9.7087,-6.14168 -10.535,0 l -10.7249,0 c -0.8263,-6.14168 -9.7087,-6.14168 -10.535,0 l -10.7248,0 c -0.8263,-6.14168 -9.7087,-6.14168 -10.535,0 l -10.7249,0 c -0.8263,-6.14168 -9.7087,-6.14168 -10.535,0 l -10.7248,0 c -0.8263,-6.14168 -9.7087,-6.14168 -10.535,0 l -10.7248,0 c -0.8263,-6.14168 -9.7087,-6.14168 -10.535,0 l -11.3386,0 -2.126,-2.12598 -134.6457,0 -2.126,2.12598 -11.3386,0 c -0.8263,-6.14168 -9.7087,-6.14168 -10.535,0 l -10.7248,0 c -0.8263,-6.14168 -9.7087,-6.14168 -10.535,0 l -10.7248,0 c -0.8263,-6.14168 -9.7087,-6.14168 -10.535,0 l -10.7249,0 c -0.8263,-6.14168 -9.7087,-6.14168 -10.535,0 l -10.7248,0 c -0.8263,-6.14168 -9.7087,-6.14168 -10.535,0 l -10.7249,0 c -0.8263,-6.14168 -9.7087,-6.14168 -10.535,0 l -10.7248,0 c -0.8263,-6.14168 -9.7087,-6.14168 -10.535,0 l -1.642,0 c -4.8956,0.13563 -8.8852,3.97179 -9.2126,8.85827 l 0,12.41332 c -4.7244,0 -4.7244,7.08662 0,7.08662 l 0,7.08661 c -4.7194,0.005 -4.7194,7.0816 0,7.08661 l 0,7.08662 c -4.7194,0.005 -4.7194,7.0816 0,7.08661 l 0,7.08662 c -4.7194,0.005 -4.7194,7.0816 0,7.08661 l 0,7.08662 c -4.7188,0.006 -4.7188,7.081 0,7.08661 l 0,7.08661 c -4.7244,0 -4.7244,7.08662 0,7.08662 l 0,7.08661 c -4.7244,0 -4.7244,7.08662 0,7.08662 l 0,7.08661 c -4.7244,0 -4.7244,7.08662 0,7.08662 l 0,7.08661 c -4.7194,0.005 -4.7194,7.0816 0,7.08661 l 0,7.08662 c -4.7194,0.005 -4.7194,7.0816 0,7.08661 l 0,7.08661 c -4.7244,0 -4.7244,7.08662 0,7.08662 l 0,7.08661 c -4.7244,0 -4.7244,7.08662 0,7.08662 l 0,7.08661 c -4.7244,0 -4.7244,7.08662 0,7.08662 l 0,7.0866 c -4.7147,0.01 -4.7147,7.0769 0,7.0866 l 0,32.5867 z"
       inkscape:connector-curvature="0"
       sodipodi:nodetypes="ccccccccccccccccccccccccccccccccccccccccccccccccccccccccccccccccccccccccccccccccccccccccccccccccccccccccc" /></g><g
     inkscape:groupmode="layer"
     id="layer2"
     inkscape:label="back counter"
     style="display:inline"><path
       id="path7531"
       style="fill:#808080;fill-opacity:1;stroke:none;stroke-linecap:round"
       d="m 234.56692,492.87414 a 9.035435,9.035435 0 1 0 -18.07087,0 9.035435,9.035435 0 0 0 18.07087,0 z"
       inkscape:connector-curvature="0" /><path
       id="path7533"
       style="fill:#808080;fill-opacity:1;stroke:none;stroke-linecap:round"
       d="m 241.81625,273.66657 a 9.035435,9.035435 0 1 0 -18.07087,0 9.035435,9.035435 0 0 0 18.07087,0 z"
       inkscape:connector-curvature="0" /><path
       id="path7535"
       style="fill:#808080;fill-opacity:1;stroke:none;stroke-linecap:round"
       d="m 766.24015,273.54348 a 9.035435,9.035435 0 1 0 -18.07087,0 9.035435,9.035435 0 0 0 18.07087,0 z"
       inkscape:connector-curvature="0" /><path
       id="path7537"
       style="fill:#808080;fill-opacity:1;stroke:none;stroke-linecap:round"
       d="m 773.50393,492.87414 a 9.035435,9.035435 0 1 0 -18.07087,0 9.035435,9.035435 0 0 0 18.07087,0 z"
       inkscape:connector-curvature="0" /></g><g
     inkscape:groupmode="layer"
     id="layer8"
     inkscape:label="back drills"
     style="display:inline"
     transform="translate(0,20.905518)"><path
       id="path7583"
       style="fill:#ffffff;fill-opacity:1;stroke:none;stroke-linecap:round"
       d="m 433.91337,434.23242 a 5.314961,5.314961 0 1 0 -10.62992,0 5.314961,5.314961 0 1 0 10.62992,0 z"
       inkscape:connector-curvature="0" /><path
       id="path7585"
       style="fill:#ffffff;fill-opacity:1;stroke:none;stroke-linecap:round"
       d="m 267.37794,434.23242 a 5.314961,5.314961 0 1 0 -10.62992,0 5.314961,5.314961 0 1 0 10.62992,0 z"
       inkscape:connector-curvature="0" /><path
       id="path7587"
       style="fill:#ffffff;fill-opacity:1;stroke:none;stroke-linecap:round"
       d="m 231.20078,471.96862 a 5.669295,5.669295 0 1 0 -11.33859,0 5.669295,5.669295 0 0 0 11.33859,0 z"
       inkscape:connector-curvature="0" /><path
       id="path7589"
       style="fill:#ffffff;fill-opacity:1;stroke:none;stroke-linecap:round"
       d="m 238.45011,252.76105 a 5.669295,5.669295 0 1 0 -11.33859,0 5.669295,5.669295 0 0 0 11.33859,0 z"
       inkscape:connector-curvature="0" /><path
       id="path7591"
       style="fill:#ffffff;fill-opacity:1;stroke:none;stroke-linecap:round"
       d="m 762.87401,252.63796 a 5.669295,5.669295 0 1 0 -11.33859,0 5.669295,5.669295 0 1 0 11.33859,0 z"
       inkscape:connector-curvature="0" /><path
       id="path7593"
       style="fill:#ffffff;fill-opacity:1;stroke:none;stroke-linecap:round"
       d="m 770.13779,471.96862 a 5.669295,5.669295 0 1 0 -11.33859,0 5.669295,5.669295 0 1 0 11.33859,0 z"
       inkscape:connector-curvature="0" /></g><g
     inkscape:groupmode="layer"
     id="layer7"
     inkscape:label="back cutouts"
     style="display:inline"
     transform="translate(0,20.905518)"><g
       inkscape:label="0"
       id="g34911"
       transform="translate(1030.0602,-364.78544)" /><g
       inkscape:label="scratch"
       id="g35189"
       transform="translate(1030.0602,-364.78544)" /><path
       inkscape:connector-curvature="0"
       id="path36010"
       style="fill:#f9f9f9;fill-opacity:1;stroke:none;stroke-linecap:round"
       d="m 273.1449,426.18459 2.97,18.81 c 0.6678,4.22946 4.3133,7.34452 8.5952,7.3445 l 121.0966,0 c 4.2819,2e-5 7.9274,-3.11504 8.5952,-7.3445 l 2.97,-18.81 c 0.8339,-5.28159 -3.2482,-10.05882 -8.5952,-10.0588 l -127.0366,0 c -4.8058,3e-5 -8.7016,3.89591 -8.7016,8.7017 0,0.45445 0.035,0.90821 0.1064,1.3571 z"
       sodipodi:nodetypes="cccccccccc" /><path
       inkscape:connector-curvature="0"
       id="path35978"
       style="fill:#f9f9f9;fill-opacity:1;stroke:none;stroke-linecap:round"
       d="m 472.4291,429.69704 5.2973,0 0,27.5669 -27.815,0 0,-27.5669 5.2972,0 0,-8.2205 17.2205,0 z"
       sodipodi:nodetypes="ccccccccc" /><path
       inkscape:connector-curvature="0"
       id="path35964"
       style="fill:#f9f9f9;fill-opacity:1;stroke:none;stroke-linecap:round"
       d="m 513.1595,429.69704 -5.2973,0 0,-8.2205 -17.2205,0 0,8.2205 -5.2972,0 0,27.5669 27.815,0 z"
       sodipodi:nodetypes="ccccccccc" /><path
       inkscape:connector-curvature="0"
       id="path35952"
       style="fill:#f9f9f9;fill-opacity:1;stroke:none;stroke-linecap:round"
       d="m 548.5926,429.69704 -5.2973,0 0,-8.2205 -17.2205,0 0,8.2205 -5.2972,0 0,27.5669 27.815,0 z"
       sodipodi:nodetypes="ccccccccc" /><path
       inkscape:connector-curvature="0"
       id="path35932"
       style="fill:#f9f9f9;fill-opacity:1;stroke:none;stroke-linecap:round"
       d="m 556.2106,457.26394 0,-27.5669 5.2972,0 0,-8.2205 17.2205,0 0,8.2205 5.2973,0 0,27.5669 z"
       sodipodi:nodetypes="ccccccccc" /><path
       inkscape:connector-curvature="0"
       id="path35908"
       style="fill:#f9f9f9;fill-opacity:1;stroke:none;stroke-linecap:round"
       d="m 603.6732,429.69704 0,-8.2205 17.2205,0 0,8.2205 10.6122,0 0,27.5669 -38.4449,0 0,-27.5669 z"
       sodipodi:nodetypes="ccccccccc" /><path
       inkscape:connector-curvature="0"
       id="path35894"
       style="fill:#f9f9f9;fill-opacity:1;stroke:none;stroke-linecap:round"
       d="m 666.9567,421.47654 0,8.2205 10.6122,0 0,27.5669 -38.4449,0 0,-27.5669 10.6122,0 0,-8.2205 z"
       sodipodi:nodetypes="ccccccccc" /><path
       inkscape:connector-curvature="0"
       id="path35870"
       style="fill:#f9f9f9;fill-opacity:1;stroke:none;stroke-linecap:round"
       d="m 682.0866,420.59066 0,37.5591 52.4409,0 0,-37.5591 -14.8818,0 0,-9.0354 -22.6772,0 0,9.0354 z"
       sodipodi:nodetypes="ccccccccc" /><path
       id="path34947"
       style="fill:#f9f9f9;fill-opacity:1;stroke:none;stroke-linecap:round"
       d="m 552.6673,365.13796 0,-62.00788 58.2874,0 0,62.00788 z"
       inkscape:connector-curvature="0"
       sodipodi:nodetypes="ccccc" /><path
       id="path34949"
       style="fill:#f9f9f9;fill-opacity:1;stroke:none;stroke-linecap:round"
       d="m 617.3327,303.13008 0,62.00788 58.2874,0 0,-62.00788 z"
       inkscape:connector-curvature="0"
       sodipodi:nodetypes="ccccc" /><path
       id="path34959"
       style="fill:#f9f9f9;fill-opacity:1;stroke:none;stroke-linecap:round"
       d="m 545.9528,365.13796 -60.2717,0 0,-52.26378 60.2717,0 z"
       inkscape:connector-curvature="0"
       sodipodi:nodetypes="ccccc" /></g><g
     inkscape:groupmode="layer"
     id="layer4"
     inkscape:label="back slik"
     style="display:inline"
     transform="translate(0,20.905518)"><text
       id="text12458"
       style="font-variant:normal;font-weight:normal;font-size:16px;font-family:Audiowide;-inkscape-font-specification:Audiowide-Regular;writing-mode:lr-tb;fill:#f5f5f8;fill-opacity:1;fill-rule:nonzero;stroke:none"
       x="330.85699"
       y="409.7052"><tspan
         id="tspan12460"
         sodipodi:role="line"
         y="409.7052"
         x="330.85699 335.27295 345.52896">I/O</tspan></text>
<text
       xml:space="preserve"
       style="font-style:normal;font-variant:normal;font-weight:bold;font-stretch:normal;font-size:18px;line-height:125%;font-family:'Liberation Serif';-inkscape-font-specification:'Liberation Serif Bold';letter-spacing:0px;word-spacing:0px;fill:#ffffff;fill-opacity:1;stroke:none;stroke-width:1px;stroke-linecap:butt;stroke-linejoin:miter;stroke-opacity:1"
       x="740.41296"
       y="456.3952"
       id="text11631"
       sodipodi:linespacing="125%"><tspan
         sodipodi:role="line"
         id="tspan11633"
         x="740.41296"
         y="456.3952">+</tspan></text>
<text
       xml:space="preserve"
       style="font-style:normal;font-variant:normal;font-weight:bold;font-stretch:normal;font-size:18px;line-height:125%;font-family:'Liberation Serif';-inkscape-font-specification:'Liberation Serif Bold';letter-spacing:0px;word-spacing:0px;fill:#ffffff;fill-opacity:1;stroke:none;stroke-width:1px;stroke-linecap:butt;stroke-linejoin:miter;stroke-opacity:1"
       x="742.19513"
       y="433.58865"
       id="text11635"
       sodipodi:linespacing="125%"><tspan
         sodipodi:role="line"
         id="tspan11637"
         x="742.19513"
         y="433.58865">-</tspan></text>
<text
       xml:space="preserve"
       style="font-style:normal;font-variant:normal;font-weight:bold;font-stretch:normal;font-size:13.75px;line-height:100%;font-family:'Liberation Serif';-inkscape-font-specification:'Liberation Serif Bold';text-align:center;letter-spacing:0px;word-spacing:0px;text-anchor:middle;fill:#ffffff;fill-opacity:1;stroke:none;stroke-width:1px;stroke-linecap:butt;stroke-linejoin:miter;stroke-opacity:1"
       x="708.4212"
       y="391.0238"
       id="text11639"
       sodipodi:linespacing="100%"><tspan
         sodipodi:role="line"
         id="tspan11641"
         x="708.4212"
         y="391.0238"
         style="font-style:normal;font-variant:normal;font-weight:normal;font-stretch:normal;font-size:13.75px;line-height:100%;font-family:Audiowide;-inkscape-font-specification:Audiowide;text-align:center;text-anchor:middle">12 - 28</tspan><tspan
         sodipodi:role="line"
         x="708.4212"
         y="404.7738"
         style="font-style:normal;font-variant:normal;font-weight:normal;font-stretch:normal;font-size:13.75px;line-height:100%;font-family:Audiowide;-inkscape-font-specification:Audiowide;text-align:center;text-anchor:middle"
         id="tspan11643">VDC</tspan></text>
<text
       xml:space="preserve"
       style="font-style:normal;font-variant:normal;font-weight:normal;font-stretch:normal;font-size:18px;line-height:125%;font-family:'Liberation Serif';-inkscape-font-specification:'Liberation Serif';letter-spacing:0px;word-spacing:0px;fill:#ffffff;fill-opacity:1;stroke:none;stroke-width:1px;stroke-linecap:butt;stroke-linejoin:miter;stroke-opacity:1"
       x="456.72174"
       y="415.08496"
       id="text11645"
       sodipodi:linespacing="125%"><tspan
         sodipodi:role="line"
         id="tspan11647"
         x="456.72174"
         y="415.08496"
         style="font-style:normal;font-variant:normal;font-weight:normal;font-stretch:normal;font-family:Audiowide;-inkscape-font-specification:Audiowide">X</tspan></text>
<text
       xml:space="preserve"
       style="font-style:normal;font-variant:normal;font-weight:normal;font-stretch:normal;font-size:18px;line-height:125%;font-family:Audiowide;-inkscape-font-specification:'Audiowide, Normal';text-align:start;letter-spacing:0px;word-spacing:0px;writing-mode:lr-tb;text-anchor:start;fill:#ffffff;fill-opacity:1;stroke:none;stroke-width:1px;stroke-linecap:butt;stroke-linejoin:miter;stroke-opacity:1"
       x="493.26541"
       y="381.92511"
       id="text11649"
       sodipodi:linespacing="125%"><tspan
         sodipodi:role="line"
         id="tspan11651"
         x="493.26541"
         y="381.92511" /></text>
<text
       xml:space="preserve"
       style="font-style:normal;font-variant:normal;font-weight:normal;font-stretch:normal;font-size:18px;line-height:125%;font-family:Audiowide;-inkscape-font-specification:'Audiowide, Normal';text-align:start;letter-spacing:0px;word-spacing:0px;writing-mode:lr-tb;text-anchor:start;fill:#ffffff;fill-opacity:1;stroke:none;stroke-width:1px;stroke-linecap:butt;stroke-linejoin:miter;stroke-opacity:1"
       x="495.25171"
       y="380.60092"
       id="text11653"
       sodipodi:linespacing="125%"><tspan
         sodipodi:role="line"
         id="tspan11655"
         x="495.25171"
         y="380.60092" /></text>
<text
       xml:space="preserve"
       style="font-style:normal;font-variant:normal;font-weight:normal;font-stretch:normal;font-size:18px;line-height:125%;font-family:Audiowide;-inkscape-font-specification:'Audiowide, Normal';text-align:start;letter-spacing:0px;word-spacing:0px;writing-mode:lr-tb;text-anchor:start;fill:#ffffff;fill-opacity:1;stroke:none;stroke-width:1px;stroke-linecap:butt;stroke-linejoin:miter;stroke-opacity:1"
       x="492.22076"
       y="415.08496"
       id="text11657"
       sodipodi:linespacing="125%"><tspan
         sodipodi:role="line"
         id="tspan11659"
         x="492.22076"
         y="415.08496">Y</tspan></text>
<text
       xml:space="preserve"
       style="font-style:normal;font-variant:normal;font-weight:normal;font-stretch:normal;font-size:18px;line-height:125%;font-family:Audiowide;-inkscape-font-specification:'Audiowide, Normal';text-align:start;letter-spacing:0px;word-spacing:0px;writing-mode:lr-tb;text-anchor:start;fill:#ffffff;fill-opacity:1;stroke:none;stroke-width:1px;stroke-linecap:butt;stroke-linejoin:miter;stroke-opacity:1"
       x="528.26404"
       y="415.08496"
       id="text11661"
       sodipodi:linespacing="125%"><tspan
         sodipodi:role="line"
         id="tspan11663"
         x="528.26404"
         y="415.08496">Z</tspan></text>
<text
       xml:space="preserve"
       style="font-style:normal;font-variant:normal;font-weight:normal;font-stretch:normal;font-size:18px;line-height:125%;font-family:Audiowide;-inkscape-font-specification:'Audiowide, Normal';text-align:start;letter-spacing:0px;word-spacing:0px;writing-mode:lr-tb;text-anchor:start;fill:#ffffff;fill-opacity:1;stroke:none;stroke-width:1px;stroke-linecap:butt;stroke-linejoin:miter;stroke-opacity:1"
       x="562.7265"
       y="415.08496"
       id="text11665"
       sodipodi:linespacing="125%"><tspan
         sodipodi:role="line"
         id="tspan11667"
         x="562.7265"
         y="415.08496">A</tspan></text>
<text
       xml:space="preserve"
       style="font-style:normal;font-variant:normal;font-weight:normal;font-stretch:normal;font-size:18px;line-height:125%;font-family:Audiowide;-inkscape-font-specification:'Audiowide, Normal';text-align:start;letter-spacing:0px;word-spacing:0px;writing-mode:lr-tb;text-anchor:start;fill:#ffffff;fill-opacity:1;stroke:none;stroke-width:1px;stroke-linecap:butt;stroke-linejoin:miter;stroke-opacity:1"
       x="602.62427"
       y="415.08496"
       id="text11669"
       sodipodi:linespacing="125%"><tspan
         sodipodi:role="line"
         id="tspan11671"
         x="602.62427"
         y="415.08496">L1</tspan></text>
<text
       xml:space="preserve"
       style="font-style:normal;font-variant:normal;font-weight:normal;font-stretch:normal;font-size:18px;line-height:125%;font-family:Audiowide;-inkscape-font-specification:'Audiowide, Normal';text-align:start;letter-spacing:0px;word-spacing:0px;writing-mode:lr-tb;text-anchor:start;fill:#ffffff;fill-opacity:1;stroke:none;stroke-width:1px;stroke-linecap:butt;stroke-linejoin:miter;stroke-opacity:1"
       x="644.80249"
       y="415.08496"
       id="text11673"
       sodipodi:linespacing="125%"><tspan
         sodipodi:role="line"
         id="tspan11675"
         x="644.80249"
         y="415.08496">L2</tspan></text>
<g
       inkscape:label="0"
       id="g13515"
       transform="translate(1024.7743,-615.66933)" /><text
       xml:space="preserve"
       style="font-style:normal;font-variant:normal;font-weight:normal;font-stretch:normal;font-size:18px;line-height:125%;font-family:Audiowide;-inkscape-font-specification:'Audiowide, Normal';text-align:start;letter-spacing:0px;word-spacing:0px;writing-mode:lr-tb;text-anchor:start;display:inline;fill:#ffffff;fill-opacity:1;stroke:none;stroke-width:1px;stroke-linecap:butt;stroke-linejoin:miter;stroke-opacity:1"
       x="490.03864"
       y="304.16962"
       id="text14632"
       sodipodi:linespacing="125%"><tspan
         sodipodi:role="line"
         id="tspan14634"
         x="490.03864"
         y="304.16962">ENet</tspan></text>
<text
       xml:space="preserve"
       style="font-style:normal;font-variant:normal;font-weight:normal;font-stretch:normal;font-size:18px;line-height:125%;font-family:Audiowide;-inkscape-font-specification:'Audiowide, Normal';text-align:start;letter-spacing:0px;word-spacing:0px;writing-mode:lr-tb;text-anchor:start;display:inline;fill:#ffffff;fill-opacity:1;stroke:none;stroke-width:1px;stroke-linecap:butt;stroke-linejoin:miter;stroke-opacity:1"
       x="559.80316"
       y="294.3454"
       id="text14636"
       sodipodi:linespacing="125%"><tspan
         sodipodi:role="line"
         id="tspan14638"
         x="559.80316"
         y="294.3454">USB</tspan></text>
<text
       xml:space="preserve"
       style="font-style:normal;font-variant:normal;font-weight:normal;font-stretch:normal;font-size:18px;line-height:125%;font-family:Audiowide;-inkscape-font-specification:'Audiowide, Normal';text-align:start;letter-spacing:0px;word-spacing:0px;writing-mode:lr-tb;text-anchor:start;display:inline;fill:#ffffff;fill-opacity:1;stroke:none;stroke-width:1px;stroke-linecap:butt;stroke-linejoin:miter;stroke-opacity:1"
       x="624.46857"
       y="294.3454"
       id="text14640"
       sodipodi:linespacing="125%"><tspan
         sodipodi:role="line"
         id="tspan14642"
         x="624.46857"
         y="294.3454">USB</tspan></text>
<g
       inkscape:label="0"
       id="g14757"
       transform="translate(862.78533,-429.33519)" /><g
       inkscape:label="0"
       id="g16362"
       transform="translate(1054.887,-561.25126)" /><g
       inkscape:label="0"
       id="g18153"
       transform="translate(998.70583,-487.27941)" /><g
       inkscape:label="0"
       id="g32895"
       transform="translate(862.93471,-483.00251)" /><g
       inkscape:label="scratch"
       id="g33173"
       transform="translate(862.93471,-483.00251)" /></g><g
     inkscape:groupmode="layer"
     id="layer11"
     inkscape:label="back text"
     style="display:inline"
     transform="translate(0,20.905518)"><text
       xml:space="preserve"
       style="font-style:normal;font-variant:normal;font-weight:normal;font-stretch:normal;font-size:60px;line-height:125%;font-family:'Liberation Serif';-inkscape-font-specification:'Liberation Serif, Normal';text-align:start;letter-spacing:0px;word-spacing:0px;writing-mode:lr-tb;text-anchor:start;display:inline;fill:#000000;fill-opacity:1;stroke:none;stroke-width:1px;stroke-linecap:butt;stroke-linejoin:miter;stroke-opacity:1"
       x="432.49512"
       y="70.128815"
       id="text17732"
       sodipodi:linespacing="125%"><tspan
         sodipodi:role="line"
         id="tspan17734"
         x="432.49512"
         y="70.128815">Back</tspan></text>
<g
       inkscape:label="0"
       id="g10474"
       transform="translate(1046.3104,-551.92102)" /></g></svg>