<?xml version="1.0" encoding="UTF-8" standalone="no"?>
<svg
   xmlns:lc="http://www.librecad.org"
   xmlns:dc="http://purl.org/dc/elements/1.1/"
   xmlns:cc="http://creativecommons.org/ns#"
   xmlns:rdf="http://www.w3.org/1999/02/22-rdf-syntax-ns#"
   xmlns:svg="http://www.w3.org/2000/svg"
   xmlns="http://www.w3.org/2000/svg"
   xmlns:sodipodi="http://sodipodi.sourceforge.net/DTD/sodipodi-0.dtd"
   xmlns:inkscape="http://www.inkscape.org/namespaces/inkscape"
   width="8.5in"
   height="11in"
   viewBox="0 0 215.90001 279.4"
   version="1.1"
   id="svg58"
   sodipodi:docname="back3.svg"
   inkscape:version="0.92.4 (5da689c313, 2019-01-14)">
  <metadata
     id="metadata64">
    <rdf:RDF>
      <cc:Work
         rdf:about="">
        <dc:format>image/svg+xml</dc:format>
        <dc:type
           rdf:resource="http://purl.org/dc/dcmitype/StillImage" />
        <dc:title></dc:title>
      </cc:Work>
    </rdf:RDF>
  </metadata>
  <defs
     id="defs62" />
  <sodipodi:namedview
     pagecolor="#ffffff"
     bordercolor="#666666"
     borderopacity="1"
     objecttolerance="10"
     gridtolerance="10"
     guidetolerance="10"
     inkscape:pageopacity="0"
     inkscape:pageshadow="2"
     inkscape:window-width="1680"
     inkscape:window-height="971"
     id="namedview60"
     showgrid="false"
     units="in"
     inkscape:zoom="0.62177903"
     inkscape:cx="497.6577"
     inkscape:cy="655.20054"
     inkscape:window-x="0"
     inkscape:window-y="27"
     inkscape:window-maximized="1"
     inkscape:current-layer="svg58" />
  <g
     id="g1033"
     transform="translate(25.957104,-16.286183)">
    <path
       d="m 46.836607,146.1 h 38 l 0.6,0.6 h 3.2 a 1.5,1.5 0 0 1 2.973214,0 h 3.026786 a 1.5,1.5 0 0 1 2.973214,0 h 3.026789 a 1.5,1.5 0 0 1 2.97321,0 h 3.02679 a 1.5,1.5 0 0 1 2.97321,0 h 3.02679 a 1.5,1.5 0 0 1 2.97321,0 h 3.02679 a 1.5,1.5 0 0 1 2.97321,0 h 3.02679 a 1.5,1.5 0 0 1 2.97321,0 h 3.02679 a 1.5,1.5 0 0 1 2.97321,0 h 3.02679 a 1.5,1.5 0 0 1 2.97321,0 h 3.02679 a 1.5,1.5 0 0 1 2.97321,0 h 3.02679 a 1.5,1.5 0 0 1 2.97321,0 h 3.02679 a 1.5,1.5 0 0 1 2.97321,0 H 158.1 a 2.6802212,2.6802212 0 0 1 2.6,2.5 v 3.50332 a 1,1 0 1 1 0,2 v 2 a 1,1 0 1 1 0,2 v 2 a 1,1 0 1 1 0,2 v 2 a 1,1 0 1 1 0,2 v 2 a 1,1 0 1 1 0,2 v 2 a 1,1 0 1 1 0,2 v 2 a 1,1 0 1 1 0,2 v 2 a 1,1 0 1 1 0,2 v 2 a 1,1 0 1 1 0,2 v 2 a 1,1 0 1 1 0,2 v 2 a 1,1 0 1 1 0,2 v 2 a 1,1 0 1 1 0,2 v 2 a 1,1 0 1 1 0,2 v 2 a 1,1 0 1 1 0,2 V 215.9 H 1 v -9.19668 a 1,1 0 1 1 0,-2 v -2 a 1,1 0 1 1 0,-2 v -2 a 1,1 0 1 1 0,-2 v -2 a 1,1 0 1 1 0,-2 v -2 a 1,1 0 1 1 0,-2 v -2 a 1,1 0 1 1 0,-2 v -2 a 1,1 0 1 1 0,-2 v -2 a 1,1 0 1 1 0,-2 v -2 a 1,1 0 1 1 0,-2 v -2 a 1,1 0 1 1 0,-2 v -2 a 1,1 0 1 1 0,-2 v -2 a 1,1 0 1 1 0,-2 v -2 a 1,1 0 1 1 0,-2 v -2 a 1,1 0 1 1 0,-2 V 149.2 a 2.6802212,2.6802212 0 0 1 2.6,-2.5 h 0.4633931 a 1.5,1.5 0 0 1 2.9732138,0 h 3.0267861 a 1.5,1.5 0 0 1 2.973214,0 h 3.026786 a 1.5,1.5 0 0 1 2.973214,0 h 3.026786 a 1.5,1.5 0 0 1 2.973214,0 h 3.026786 a 1.5,1.5 0 0 1 2.973214,0 h 3.026786 a 1.5,1.5 0 0 1 2.973214,0 h 3.026786 a 1.5,1.5 0 0 1 2.973214,0 h 3.2 z"
       id="path52"
       inkscape:connector-curvature="0"
       style="fill:#050000;fill-opacity:1;stroke:none;stroke-width:1" />
    <g
       transform="translate(0,145.4)"
       style="fill:#7d7d7d;fill-opacity:1;stroke:none;stroke-width:1"
       id="g10"
       lc:is_construction="false"
       lc:is_locked="false"
       lc:layername="COUNTER">
      <circle
         style="fill:#7d7d7d;fill-opacity:1;stroke:none"
         id="circle2"
         r="2.55"
         cy="66.400002"
         cx="4.8000002" />
      <circle
         style="fill:#7d7d7d;fill-opacity:1;stroke:none"
         id="circle4"
         r="2.55"
         cy="4.5"
         cx="154.85001" />
      <circle
         style="fill:#7d7d7d;fill-opacity:1;stroke:none"
         id="circle6"
         r="2.55"
         cy="66.400002"
         cx="156.89999" />
      <circle
         style="fill:#7d7d7d;fill-opacity:1;stroke:none"
         id="circle8"
         r="2.55"
         cy="4.5"
         cx="6.8499999" />
    </g>
    <path
       d="M 95.23,167.4 H 78.22 v 14.25 h 17.01 z"
       id="path12"
       inkscape:connector-curvature="0"
       style="fill:#ffffff;fill-opacity:1;stroke:none;stroke-width:1" />
    <path
       d="m 97.125,164.65 h 16.45 v 17 h -16.45 z"
       id="path14"
       inkscape:connector-curvature="0"
       style="fill:#ffffff;fill-opacity:1;stroke:none;stroke-width:1" />
    <path
       d="m 149.2,207.9 v -11.6 h -4.7 v -4 h -6.4 v 4 h -4.2 v 11.6 z"
       id="path16"
       inkscape:connector-curvature="0"
       style="fill:#ffffff;fill-opacity:1;stroke:none;stroke-width:1" />
    <path
       d="m 94.48,196.05 h -4.86 v 3.32 h -5.14 v -3.32 h -4.86 v 3.32 h -5.14 v -3.32 h -4.86 v 3.32 h -1.745 v 8.53 h 38.575 v -8.53 h -1.97 v -3.32 h -4.86 v 3.32 h -5.14 z"
       id="path18"
       inkscape:connector-curvature="0"
       style="fill:#ffffff;fill-opacity:1;stroke:none;stroke-width:1" />
    <path
       d="m 27.513329,169.5399 a 2.4558,2.4558 0 0 0 -2.4558,2.4558 2.4558,2.4558 0 0 0 0.03005,0.38301 l 0.8382,5.3086 a 2.4558,2.4558 0 0 0 2.425748,2.07279 h 20.476142 a 2.4558,2.4558 0 0 0 2.425748,-2.07279 l 0.8382,-5.3086 a 2.4558,2.4558 0 0 0 -2.425746,-2.83881 z"
       id="path20"
       inkscape:connector-curvature="0"
       style="fill:#ffffff;fill-opacity:1;stroke:none;stroke-width:1;stroke-opacity:1" />
    <path
       d="m 43.247214,160.55874 0.878448,-0.35138 A 1.375,1.375 0 0 0 44.99,158.9307 v -4.08074 a 1.375,1.375 0 0 0 -1.375,-1.375 h -15.25 a 1.375,1.375 0 0 0 -1.375,1.375 v 4.08074 a 1.375,1.375 0 0 0 0.864338,1.27666 l 0.878448,0.35138 1.013496,1.01349 a 1.3750011,1.3750011 0 0 0 0.972272,0.40273 h 10.542893 a 1.375,1.375 0 0 0 0.972271,-0.40273 z"
       id="path22"
       inkscape:connector-curvature="0"
       style="fill:#ffffff;fill-opacity:1;stroke:none;stroke-width:1" />
    <path
       d="m 115.125,164.65 v 17 h 16.45 v -17 z"
       id="path24"
       inkscape:connector-curvature="0"
       style="fill:#ffffff;fill-opacity:1;stroke:none;stroke-width:1" />
    <g
       transform="translate(0,145.4)"
       style="fill:#ffffff;fill-opacity:1;stroke:none;stroke-width:1"
       id="g32"
       lc:is_construction="false"
       lc:is_locked="false"
       lc:layername="DB15">
      <circle
         style="fill:#ffffff;fill-opacity:1;stroke:none"
         id="circle28"
         r="1.55"
         cy="29.25"
         cx="21.959999" />
      <circle
         style="fill:#ffffff;fill-opacity:1;stroke:none"
         id="circle30"
         r="1.55"
         cy="29.25"
         cx="55.259998" />
    </g>
    <circle
       cx="4.8000002"
       cy="211.8"
       r="1.6"
       id="circle34"
       style="fill:#ffffff;fill-opacity:1;stroke:none;stroke-width:1" />
    <circle
       cx="154.85001"
       cy="149.89999"
       r="1.6"
       id="circle36"
       style="fill:#ffffff;fill-opacity:1;stroke:none;stroke-width:1" />
    <circle
       cx="156.89999"
       cy="211.8"
       r="1.6"
       id="circle38"
       style="fill:#ffffff;fill-opacity:1;stroke:none;stroke-width:1" />
    <circle
       cx="15.11"
       cy="201.14999"
       r="1.55"
       id="circle40"
       style="fill:#ffffff;fill-opacity:1;stroke:none;stroke-width:1" />
    <circle
       cx="62.110001"
       cy="201.14999"
       r="1.55"
       id="circle42"
       style="fill:#ffffff;fill-opacity:1;stroke:none;stroke-width:1" />
    <circle
       cx="6.8499999"
       cy="149.89999"
       r="1.6"
       id="circle44"
       style="fill:#ffffff;fill-opacity:1;stroke:none;stroke-width:1" />
    <circle
       cx="23.99"
       cy="157.72501"
       r="1.55"
       id="circle46"
       style="fill:#ffffff;fill-opacity:1;stroke:none;stroke-width:1" />
    <circle
       cx="47.990002"
       cy="157.77499"
       r="1.55"
       id="circle48"
       style="fill:#ffffff;fill-opacity:1;stroke:none;stroke-width:1" />
    <path
       d="m 55.677671,206.2601 a 2.4558,2.4558 0 0 0 2.425748,-2.07279 l 0.8382,-5.3086 A 2.4558,2.4558 0 0 0 56.515871,196.0399 H 20.663329 a 2.4558,2.4558 0 0 0 -2.4558,2.4558 2.4558,2.4558 0 0 0 0.03005,0.38301 l 0.8382,5.3086 a 2.4558,2.4558 0 0 0 2.425748,2.07279 z"
       id="path54"
       inkscape:connector-curvature="0"
       style="fill:#ffffff;fill-opacity:1;stroke:none;stroke-width:1" />
    <text
       id="text876"
       y="152.59074"
       x="29.275835"
       style="font-style:normal;font-variant:normal;font-weight:normal;font-stretch:normal;font-size:3.52777767px;line-height:1.25;font-family:Audiowide;-inkscape-font-specification:Audiowide;letter-spacing:0px;word-spacing:0px;fill:#f5f5f8;fill-opacity:1;stroke:none;stroke-width:0.26458332"
       xml:space="preserve"><tspan
         style="fill:#f5f5f8;fill-opacity:1;stroke-width:0.26458332"
         y="152.59074"
         x="29.275835"
         id="tspan874"
         sodipodi:role="line">Monitor</tspan></text>
    <text
       id="text884"
       y="168.24004"
       x="29.334709"
       style="font-style:normal;font-variant:normal;font-weight:normal;font-stretch:normal;font-size:3.52777767px;line-height:1.25;font-family:Audiowide;-inkscape-font-specification:Audiowide;letter-spacing:0px;word-spacing:0px;fill:#f5f5f8;fill-opacity:1;stroke:none;stroke-width:0.26458332"
       xml:space="preserve"><tspan
         style="fill:#f5f5f8;fill-opacity:1;stroke-width:0.26458332"
         y="168.24004"
         x="29.334709"
         id="tspan882"
         sodipodi:role="line">AUX I/O</tspan></text>
    <text
       id="text880"
       y="194.64336"
       x="35.938789"
       style="font-style:normal;font-variant:normal;font-weight:normal;font-stretch:normal;font-size:3.52777767px;line-height:1.25;font-family:Audiowide;-inkscape-font-specification:Audiowide;letter-spacing:0px;word-spacing:0px;fill:#f5f5f8;fill-opacity:1;stroke:none;stroke-width:0.26458332"
       xml:space="preserve"><tspan
         style="fill:#f5f5f8;fill-opacity:1;stroke-width:0.26458332"
         y="194.64336"
         x="35.938789"
         id="tspan878"
         sodipodi:role="line">I/O</tspan></text>
    <text
       id="text888"
       y="194.92102"
       x="69.47467"
       style="font-style:normal;font-variant:normal;font-weight:normal;font-stretch:normal;font-size:3.52777767px;line-height:1.25;font-family:Audiowide;-inkscape-font-specification:Audiowide;letter-spacing:0px;word-spacing:0px;fill:#f5f5f8;fill-opacity:1;stroke:none;stroke-width:0.26458332"
       xml:space="preserve"><tspan
         style="fill:#f5f5f8;fill-opacity:1;stroke-width:0.26458332"
         y="194.92102"
         x="69.47467"
         id="tspan886"
         sodipodi:role="line">M0</tspan></text>
    <text
       id="text892"
       y="194.92101"
       x="80.153168"
       style="font-style:normal;font-variant:normal;font-weight:normal;font-stretch:normal;font-size:3.52777767px;line-height:1.25;font-family:Audiowide;-inkscape-font-specification:Audiowide;letter-spacing:0px;word-spacing:0px;fill:#f5f5f8;fill-opacity:1;stroke:none;stroke-width:0.26458332"
       xml:space="preserve"><tspan
         style="fill:#f5f5f8;fill-opacity:1;stroke-width:0.26458332"
         y="194.92101"
         x="80.153168"
         id="tspan890"
         sodipodi:role="line">M1</tspan></text>
    <text
       id="text896"
       y="195.11876"
       x="88.854187"
       style="font-style:normal;font-variant:normal;font-weight:normal;font-stretch:normal;font-size:3.52777767px;line-height:1.25;font-family:Audiowide;-inkscape-font-specification:Audiowide;letter-spacing:0px;word-spacing:0px;fill:#f5f5f8;fill-opacity:1;stroke:none;stroke-width:0.26458332"
       xml:space="preserve"><tspan
         style="fill:#f5f5f8;fill-opacity:1;stroke-width:0.26458332"
         y="195.11876"
         x="88.854187"
         id="tspan894"
         sodipodi:role="line">M2</tspan></text>
    <text
       id="text900"
       y="195.11876"
       x="98.939438"
       style="font-style:normal;font-variant:normal;font-weight:normal;font-stretch:normal;font-size:3.52777767px;line-height:1.25;font-family:Audiowide;-inkscape-font-specification:Audiowide;letter-spacing:0px;word-spacing:0px;fill:#f5f5f8;fill-opacity:1;stroke:none;stroke-width:0.26458332"
       xml:space="preserve"><tspan
         style="fill:#f5f5f8;fill-opacity:1;stroke-width:0.26458332"
         y="195.11876"
         x="98.939438"
         id="tspan898"
         sodipodi:role="line">M3</tspan></text>
    <text
       id="text932"
       y="166.35945"
       x="86.801758"
       style="font-style:normal;font-variant:normal;font-weight:normal;font-stretch:normal;font-size:3.52777767px;line-height:1.25;font-family:Audiowide;-inkscape-font-specification:Audiowide;text-align:center;letter-spacing:0px;word-spacing:0px;text-anchor:middle;fill:#f5f5f8;fill-opacity:1;stroke:none;stroke-width:0.26458332"
       xml:space="preserve"><tspan
         style="fill:#f5f5f8;fill-opacity:1;stroke-width:0.26458332"
         y="166.35945"
         x="86.801758"
         id="tspan930"
         sodipodi:role="line">Enet</tspan></text>
    <text
       id="text924"
       y="163.20007"
       x="114.10919"
       style="font-style:normal;font-variant:normal;font-weight:normal;font-stretch:normal;font-size:3.52777767px;line-height:1.25;font-family:Audiowide;-inkscape-font-specification:Audiowide;text-align:center;letter-spacing:0px;word-spacing:0px;text-anchor:middle;fill:#f5f5f8;fill-opacity:1;stroke:none;stroke-width:0.26458332"
       xml:space="preserve"><tspan
         style="fill:#f5f5f8;fill-opacity:1;stroke-width:0.26458332"
         y="163.20007"
         x="114.10919"
         id="tspan922"
         sodipodi:role="line">USB</tspan></text>
    <text
       id="text918"
       y="186.77953"
       x="140.76202"
       style="font-style:normal;font-variant:normal;font-weight:normal;font-stretch:normal;font-size:3.52777767px;line-height:1.25;font-family:Audiowide;-inkscape-font-specification:Audiowide;text-align:center;letter-spacing:0px;word-spacing:0px;text-anchor:middle;fill:#f5f5f8;fill-opacity:1;stroke:none;stroke-width:0.26458332"
       xml:space="preserve"><tspan
         style="fill:#f5f5f8;fill-opacity:1;stroke-width:0.26458332"
         y="186.77953"
         x="140.76202"
         id="tspan916"
         sodipodi:role="line">24-48</tspan><tspan
         id="tspan920"
         style="fill:#f5f5f8;fill-opacity:1;stroke-width:0.26458332"
         y="191.18925"
         x="140.76202"
         sodipodi:role="line">VDC</tspan></text>
  </g>
  <text
     xml:space="preserve"
     style="font-style:normal;font-variant:normal;font-weight:normal;font-stretch:normal;font-size:16.93333244px;line-height:125%;font-family:'Liberation Serif';-inkscape-font-specification:'Liberation Serif, Normal';text-align:start;letter-spacing:0px;word-spacing:0px;writing-mode:lr-tb;text-anchor:start;display:inline;fill:#000000;fill-opacity:1;stroke:none;stroke-width:0.28222221px;stroke-linecap:butt;stroke-linejoin:miter;stroke-opacity:1"
     x="84.486046"
     y="65.620316"
     id="text17732"><tspan
       style="stroke-width:0.28222221px"
       sodipodi:role="line"
       id="tspan17734"
       x="84.486046"
       y="65.620316">Back</tspan></text>
</svg>
