999
dxfrw 0.6.3
  0
SECTION
  2
HEADER
  9
$ACADVER
  1
AC1021
  9
$DWGCODEPAGE
  3
ANSI_1252
  9
$INSBASE
 10
0
 20
0
 30
0
  9
$EXTMIN
 10
-9.999999999999988
 20
-2.842170943040401e-14
 30
0
  9
$EXTMAX
 10
173.1250000000002
 20
204.25
 30
0
  9
$LIMMIN
 10
0
 20
0
  9
$LIMMAX
 10
420
 20
297
  9
$ORTHOMODE
 70
    0
  9
$REGENMODE
 70
    1
  9
$FILLMODE
 70
    1
  9
$QTEXTMODE
 70
    0
  9
$MIRRTEXT
 70
    0
  9
$LTSCALE
 40
1
  9
$ATTMODE
 70
    0
  9
$TEXTSIZE
 40
2.5
  9
$TRACEWID
 40
15.68
  9
$TEXTSTYLE
  7
STANDARD
  9
$CLAYER
  8
DIM
  9
$CELTYPE
  6
BYLAYER
  9
$CECOLOR
 62
  256
  9
$CELTSCALE
 40
1
  9
$DISPSILH
 70
    0
  9
$DIMSCALE
 40
1
  9
$DIMASZ
 40
2.5
  9
$DIMEXO
 40
0.625
  9
$DIMDLI
 40
3.75
  9
$DIMRND
 40
0
  9
$DIMDLE
 40
0
  9
$DIMEXE
 40
1.25
  9
$DIMTP
 40
0
  9
$DIMTM
 40
0
  9
$DIMTXT
 40
2.5
  9
$DIMCEN
 40
2.5
  9
$DIMTSZ
 40
0
  9
$DIMTOL
 70
    0
  9
$DIMLIM
 70
    0
  9
$DIMTIH
 70
    0
  9
$DIMTOH
 70
    0
  9
$DIMSE1
 70
    0
  9
$DIMSE2
 70
    0
  9
$DIMTAD
 70
    1
  9
$DIMZIN
 70
    9
  9
$DIMBLK
  1

  9
$DIMASO
 70
    1
  9
$DIMSHO
 70
    1
  9
$DIMPOST
  1

  9
$DIMAPOST
  1

  9
$DIMALT
 70
    0
  9
$DIMALTD
 70
    3
  9
$DIMALTF
 40
0.03937
  9
$DIMLFAC
 40
1
  9
$DIMTOFL
 70
    1
  9
$DIMTVP
 40
0
  9
$DIMTIX
 70
    0
  9
$DIMSOXD
 70
    0
  9
$DIMSAH
 70
    0
  9
$DIMBLK1
  1

  9
$DIMBLK2
  1

  9
$DIMSTYLE
  2
STANDARD
  9
$DIMCLRD
 70
    0
  9
$DIMCLRE
 70
    0
  9
$DIMCLRT
 70
    0
  9
$DIMTFAC
 40
1
  9
$DIMGAP
 40
0.625
  9
$DIMJUST
 70
    0
  9
$DIMSD1
 70
    0
  9
$DIMSD2
 70
    0
  9
$DIMTOLJ
 70
    0
  9
$DIMTZIN
 70
    8
  9
$DIMALTZ
 70
    0
  9
$DIMALTTZ
 70
    0
  9
$DIMUPT
 70
    0
  9
$DIMDEC
 70
    4
  9
$DIMTDEC
 70
    2
  9
$DIMALTU
 70
    2
  9
$DIMALTTD
 70
    3
  9
$DIMTXSTY
  7
standard
  9
$DIMAUNIT
 70
    0
  9
$DIMADEC
 70
    0
  9
$DIMALTRND
 40
0
  9
$DIMAZIN
 70
    2
  9
$DIMDSEP
 70
    0
  9
$DIMATFIT
 70
    3
  9
$DIMFRAC
 70
    0
  9
$DIMLDRBLK
  1
STANDARD
  9
$DIMLUNIT
 70
    2
  9
$DIMLWD
 70
   -2
  9
$DIMLWE
 70
   -2
  9
$DIMTMOVE
 70
    0
  9
$DIMFXL
 40
1
  9
$DIMFXLON
 70
    0
  9
$DIMJOGANG
 40
0.7854
  9
$DIMTFILL
 70
    0
  9
$DIMTFILLCLR
 70
    0
  9
$DIMARCSYM
 70
    0
  9
$DIMLTYPE
  6

  9
$DIMLTEX1
  6

  9
$DIMLTEX2
  6

  9
$LUNITS
 70
    2
  9
$LUPREC
 70
    2
  9
$SKETCHINC
 40
1
  9
$FILLETRAD
 40
0
  9
$AUNITS
 70
    0
  9
$AUPREC
 70
    2
  9
$MENU
  1
.
  9
$ELEVATION
 40
0
  9
$PELEVATION
 40
0
  9
$THICKNESS
 40
0
  9
$LIMCHECK
 70
    0
  9
$CHAMFERA
 40
0
  9
$CHAMFERB
 40
0
  9
$CHAMFERC
 40
0
  9
$CHAMFERD
 40
0
  9
$SKPOLY
 70
    0
  9
$USRTIMER
 70
    1
  9
$ANGBASE
 50
0
  9
$ANGDIR
 70
    0
  9
$PDMODE
 70
   34
  9
$PDSIZE
 40
0
  9
$PLINEWID
 40
0
  9
$SPLFRAME
 70
    0
  9
$SPLINETYPE
 70
    2
  9
$SPLINESEGS
 70
    8
  9
$HANDSEED
  5
20000
  9
$SURFTAB1
 70
    6
  9
$SURFTAB2
 70
    6
  9
$SURFTYPE
 70
    6
  9
$SURFU
 70
    6
  9
$SURFV
 70
    6
  9
$UCSBASE
  2

  9
$UCSNAME
  2

  9
$UCSORG
 10
0
 20
0
 30
0
  9
$UCSXDIR
 10
1
 20
0
 30
0
  9
$UCSYDIR
 10
0
 20
1
 30
0
  9
$UCSORTHOREF
  2

  9
$UCSORTHOVIEW
 70
    0
  9
$UCSORGTOP
 10
0
 20
0
 30
0
  9
$UCSORGBOTTOM
 10
0
 20
0
 30
0
  9
$UCSORGLEFT
 10
0
 20
0
 30
0
  9
$UCSORGRIGHT
 10
0
 20
0
 30
0
  9
$UCSORGFRONT
 10
0
 20
0
 30
0
  9
$UCSORGBACK
 10
0
 20
0
 30
0
  9
$PUCSBASE
  2

  9
$PUCSNAME
  2

  9
$PUCSORG
 10
0
 20
0
 30
0
  9
$PUCSXDIR
 10
1
 20
0
 30
0
  9
$PUCSYDIR
 10
0
 20
1
 30
0
  9
$PUCSORTHOREF
  2

  9
$PUCSORTHOVIEW
 70
    0
  9
$PUCSORGTOP
 10
0
 20
0
 30
0
  9
$PUCSORGBOTTOM
 10
0
 20
0
 30
0
  9
$PUCSORGLEFT
 10
0
 20
0
 30
0
  9
$PUCSORGRIGHT
 10
0
 20
0
 30
0
  9
$PUCSORGFRONT
 10
0
 20
0
 30
0
  9
$PUCSORGBACK
 10
0
 20
0
 30
0
  9
$USERI1
 70
    0
  9
$USERI2
 70
    0
  9
$USERI3
 70
    0
  9
$USERI4
 70
    0
  9
$USERI5
 70
    0
  9
$USERR1
 40
0
  9
$USERR2
 40
0
  9
$USERR3
 40
0
  9
$USERR4
 40
0
  9
$USERR5
 40
0
  9
$WORLDVIEW
 70
    1
  9
$SHADEDGE
 70
    3
  9
$SHADEDIF
 70
   70
  9
$TILEMODE
 70
    1
  9
$MAXACTVP
 70
   64
  9
$PINSBASE
 10
0
 20
0
 30
0
  9
$PLIMCHECK
 70
    0
  9
$PEXTMIN
 10
0
 20
0
 30
0
  9
$PEXTMAX
 10
0
 20
0
 30
0
  9
$GRIDMODE
 70
    1
  9
$SNAPSTYLE
 70
    0
  9
$GRIDUNIT
 10
0
 20
0
  9
$PLIMMIN
 10
0
 20
0
  9
$PLIMMAX
 10
210
 20
297
  9
$UNITMODE
 70
    0
  9
$VISRETAIN
 70
    1
  9
$PLINEGEN
 70
    0
  9
$PSLTSCALE
 70
    1
  9
$TREEDEPTH
 70
 3020
  9
$CMLSTYLE
  2
Standard
  9
$CMLJUST
 70
    0
  9
$CMLSCALE
 40
20
  9
$PROXYGRAPHICS
 70
    1
  9
$MEASUREMENT
 70
    1
  9
$CELWEIGHT
370
   -1
  9
$ENDCAPS
280
    0
  9
$JOINSTYLE
280
    0
  9
$LWDISPLAY
290
    0
  9
$INSUNITS
 70
    4
  9
$HYPERLINKBASE
  1

  9
$STYLESHEET
  1

  9
$XEDIT
290
    1
  9
$CEPSNTYPE
380
    0
  9
$PSTYLEMODE
290
    1
  9
$EXTNAMES
290
    1
  9
$PSVPSCALE
 40
1
  9
$OLESTARTUP
290
    0
  9
$SORTENTS
280
  127
  9
$INDEXCTL
280
    0
  9
$HIDETEXT
280
    1
  9
$XCLIPFRAME
290
    0
  9
$HALOGAP
280
    0
  9
$OBSCOLOR
 70
  257
  9
$OBSLTYPE
280
    0
  9
$INTERSECTIONDISPLAY
280
    0
  9
$INTERSECTIONCOLOR
 70
  257
  9
$DIMASSOC
280
    1
  9
$PROJECTNAME
  1

  9
$CAMERADISPLAY
290
    0
  9
$LENSLENGTH
 40
50
  9
$CAMERAHEIGHT
 40
0
  9
$STEPSPERSEC
 40
2
  9
$STEPSIZE
 40
50
  9
$3DDWFPREC
 40
2
  9
$PSOLWIDTH
 40
5
  9
$PSOLHEIGHT
 40
80
  9
$LOFTANG1
 40
1.570796326794897
  9
$LOFTANG2
 40
1.570796326794897
  9
$LOFTMAG1
 40
0
  9
$LOFTMAG2
 40
0
  9
$LOFTPARAM
 70
    7
  9
$LOFTNORMALS
280
    1
  9
$LATITUDE
 40
1
  9
$LONGITUDE
 40
1
  9
$NORTHDIRECTION
 40
0
  9
$TIMEZONE
 70
-8000
  9
$LIGHTGLYPHDISPLAY
280
    1
  9
$TILEMODELIGHTSYNCH
280
    1
  9
$SOLIDHIST
280
    1
  9
$SHOWHIST
280
    1
  9
$DWFFRAME
280
    2
  9
$DGNFRAME
280
    0
  9
$REALWORLDSCALE
290
    1
  9
$INTERFERECOLOR
 62
    1
  9
$CSHADOW
280
    0
  9
$SHADOWPLANELOCATION
 40
0
  0
ENDSEC
  0
SECTION
  2
CLASSES
  0
ENDSEC
  0
SECTION
  2
TABLES
  0
TABLE
  2
VPORT
  5
8
330
0
100
AcDbSymbolTable
 70
    1
  0
VPORT
  5
31
330
2
100
AcDbSymbolTableRecord
100
AcDbViewportTableRecord
  2
*ACTIVE
 70
    0
 10
0
 20
0
 11
1
 21
1
 12
126.6615259740266
 22
94.29983766233815
 13
0
 23
0
 14
10
 24
10
 15
10
 25
10
 16
0
 26
0
 36
1
 17
0
 27
0
 37
0
 40
209.5551948051959
 41
1.922784810126582
 42
50
 43
0
 44
0
 50
0
 51
0
 71
    0
 72
  100
 73
    1
 74
    3
 75
    0
 76
    1
 77
    0
 78
    0
281
    0
 65
    1
110
0
120
0
130
0
111
1
121
0
131
0
112
0
122
1
132
0
 79
    0
146
0
348
10020
 60
    7
 61
    5
292
1
282
    1
141
0
142
0
 63
  250
421
3358443
  0
ENDTAB
  0
TABLE
  2
LTYPE
  5
5
330
0
100
AcDbSymbolTable
 70
    4
  0
LTYPE
  5
14
330
5
100
AcDbSymbolTableRecord
100
AcDbLinetypeTableRecord
  2
ByBlock
 70
    0
  3

 72
   65
 73
    0
 40
0
  0
LTYPE
  5
15
330
5
100
AcDbSymbolTableRecord
100
AcDbLinetypeTableRecord
  2
ByLayer
 70
    0
  3

 72
   65
 73
    0
 40
0
  0
LTYPE
  5
16
330
5
100
AcDbSymbolTableRecord
100
AcDbLinetypeTableRecord
  2
Continuous
 70
    0
  3
Solid line
 72
   65
 73
    0
 40
0
  0
LTYPE
  5
32
330
5
100
AcDbSymbolTableRecord
100
AcDbLinetypeTableRecord
  2
DOT
 70
    0
  3
Dot . . . . . . . . . . . . . . . . . . . . . .
 72
   65
 73
    2
 40
6.35
 49
0
 74
    0
 49
-6.35
 74
    0
  0
LTYPE
  5
33
330
5
100
AcDbSymbolTableRecord
100
AcDbLinetypeTableRecord
  2
DOTTINY
 70
    0
  3
Dot (.15x) .....................................
 72
   65
 73
    2
 40
0.9525
 49
0
 74
    0
 49
-0.9525
 74
    0
  0
LTYPE
  5
34
330
5
100
AcDbSymbolTableRecord
100
AcDbLinetypeTableRecord
  2
DOT2
 70
    0
  3
Dot (.5x) .....................................
 72
   65
 73
    2
 40
3.175
 49
0
 74
    0
 49
-3.175
 74
    0
  0
LTYPE
  5
35
330
5
100
AcDbSymbolTableRecord
100
AcDbLinetypeTableRecord
  2
DOTX2
 70
    0
  3
Dot (2x) .  .  .  .  .  .  .  .  .  .  .  .  .
 72
   65
 73
    2
 40
12.7
 49
0
 74
    0
 49
-12.7
 74
    0
  0
LTYPE
  5
36
330
5
100
AcDbSymbolTableRecord
100
AcDbLinetypeTableRecord
  2
DASHED
 70
    0
  3
Dashed _ _ _ _ _ _ _ _ _ _ _ _ _ _ _ _ _
 72
   65
 73
    2
 40
19.05
 49
12.7
 74
    0
 49
-6.35
 74
    0
  0
LTYPE
  5
37
330
5
100
AcDbSymbolTableRecord
100
AcDbLinetypeTableRecord
  2
DASHEDTINY
 70
    0
  3
Dashed (.15x) _ _ _ _ _ _ _ _ _ _ _ _ _ _ _ _ _
 72
   65
 73
    2
 40
2.8575
 49
1.905
 74
    0
 49
-0.9525
 74
    0
  0
LTYPE
  5
38
330
5
100
AcDbSymbolTableRecord
100
AcDbLinetypeTableRecord
  2
DASHED2
 70
    0
  3
Dashed (.5x) _ _ _ _ _ _ _ _ _ _ _ _ _ _ _ _ _
 72
   65
 73
    2
 40
9.524999999999999
 49
6.35
 74
    0
 49
-3.175
 74
    0
  0
LTYPE
  5
39
330
5
100
AcDbSymbolTableRecord
100
AcDbLinetypeTableRecord
  2
DASHEDX2
 70
    0
  3
Dashed (2x) ____  ____  ____  ____  ____  ___
 72
   65
 73
    2
 40
38.09999999999999
 49
25.4
 74
    0
 49
-12.7
 74
    0
  0
LTYPE
  5
3A
330
5
100
AcDbSymbolTableRecord
100
AcDbLinetypeTableRecord
  2
DASHDOT
 70
    0
  3
Dash dot __ . __ . __ . __ . __ . __ . __ . __
 72
   65
 73
    4
 40
25.4
 49
12.7
 74
    0
 49
-6.35
 74
    0
 49
0
 74
    0
 49
-6.35
 74
    0
  0
LTYPE
  5
3B
330
5
100
AcDbSymbolTableRecord
100
AcDbLinetypeTableRecord
  2
DASHDOTTINY
 70
    0
  3
Dash dot (.15x) _._._._._._._._._._._._._._._.
 72
   65
 73
    4
 40
3.81
 49
1.905
 74
    0
 49
-0.9525
 74
    0
 49
0
 74
    0
 49
-0.9525
 74
    0
  0
LTYPE
  5
3C
330
5
100
AcDbSymbolTableRecord
100
AcDbLinetypeTableRecord
  2
DASHDOT2
 70
    0
  3
Dash dot (.5x) _._._._._._._._._._._._._._._.
 72
   65
 73
    4
 40
12.7
 49
6.35
 74
    0
 49
-3.175
 74
    0
 49
0
 74
    0
 49
-3.175
 74
    0
  0
LTYPE
  5
3D
330
5
100
AcDbSymbolTableRecord
100
AcDbLinetypeTableRecord
  2
DASHDOTX2
 70
    0
  3
Dash dot (2x) ____  .  ____  .  ____  .  ___
 72
   65
 73
    4
 40
50.8
 49
25.4
 74
    0
 49
-12.7
 74
    0
 49
0
 74
    0
 49
-12.7
 74
    0
  0
LTYPE
  5
3E
330
5
100
AcDbSymbolTableRecord
100
AcDbLinetypeTableRecord
  2
DIVIDE
 70
    0
  3
Divide ____ . . ____ . . ____ . . ____ . . ____
 72
   65
 73
    6
 40
31.75
 49
12.7
 74
    0
 49
-6.35
 74
    0
 49
0
 74
    0
 49
-6.35
 74
    0
 49
0
 74
    0
 49
-6.35
 74
    0
  0
LTYPE
  5
3F
330
5
100
AcDbSymbolTableRecord
100
AcDbLinetypeTableRecord
  2
DIVIDETINY
 70
    0
  3
Divide (.15x) __..__..__..__..__..__..__..__.._
 72
   65
 73
    6
 40
4.7625
 49
1.905
 74
    0
 49
-0.9525
 74
    0
 49
0
 74
    0
 49
-0.9525
 74
    0
 49
0
 74
    0
 49
-0.9525
 74
    0
  0
LTYPE
  5
40
330
5
100
AcDbSymbolTableRecord
100
AcDbLinetypeTableRecord
  2
DIVIDE2
 70
    0
  3
Divide (.5x) __..__..__..__..__..__..__..__.._
 72
   65
 73
    6
 40
15.875
 49
6.35
 74
    0
 49
-3.175
 74
    0
 49
0
 74
    0
 49
-3.175
 74
    0
 49
0
 74
    0
 49
-3.175
 74
    0
  0
LTYPE
  5
41
330
5
100
AcDbSymbolTableRecord
100
AcDbLinetypeTableRecord
  2
DIVIDEX2
 70
    0
  3
Divide (2x) ________  .  .  ________  .  .  _
 72
   65
 73
    6
 40
63.5
 49
25.4
 74
    0
 49
-12.7
 74
    0
 49
0
 74
    0
 49
-12.7
 74
    0
 49
0
 74
    0
 49
-12.7
 74
    0
  0
LTYPE
  5
42
330
5
100
AcDbSymbolTableRecord
100
AcDbLinetypeTableRecord
  2
BORDER
 70
    0
  3
Border __ __ . __ __ . __ __ . __ __ . __ __ .
 72
   65
 73
    6
 40
44.45
 49
12.7
 74
    0
 49
-6.35
 74
    0
 49
12.7
 74
    0
 49
-6.35
 74
    0
 49
0
 74
    0
 49
-6.35
 74
    0
  0
LTYPE
  5
43
330
5
100
AcDbSymbolTableRecord
100
AcDbLinetypeTableRecord
  2
BORDERTINY
 70
    0
  3
Border (.15x) __.__.__.__.__.__.__.__.__.__.__.
 72
   65
 73
    6
 40
6.6675
 49
1.905
 74
    0
 49
-0.9525
 74
    0
 49
1.905
 74
    0
 49
-0.9525
 74
    0
 49
0
 74
    0
 49
-0.9525
 74
    0
  0
LTYPE
  5
44
330
5
100
AcDbSymbolTableRecord
100
AcDbLinetypeTableRecord
  2
BORDER2
 70
    0
  3
Border (.5x) __.__.__.__.__.__.__.__.__.__.__.
 72
   65
 73
    6
 40
22.225
 49
6.35
 74
    0
 49
-3.175
 74
    0
 49
6.35
 74
    0
 49
-3.175
 74
    0
 49
0
 74
    0
 49
-3.175
 74
    0
  0
LTYPE
  5
45
330
5
100
AcDbSymbolTableRecord
100
AcDbLinetypeTableRecord
  2
BORDERX2
 70
    0
  3
Border (2x) ____  ____  .  ____  ____  .  ___
 72
   65
 73
    6
 40
88.89999999999999
 49
25.4
 74
    0
 49
-12.7
 74
    0
 49
25.4
 74
    0
 49
-12.7
 74
    0
 49
0
 74
    0
 49
-12.7
 74
    0
  0
LTYPE
  5
46
330
5
100
AcDbSymbolTableRecord
100
AcDbLinetypeTableRecord
  2
CENTER
 70
    0
  3
Center ____ _ ____ _ ____ _ ____ _ ____ _ ____
 72
   65
 73
    4
 40
50.8
 49
31.75
 74
    0
 49
-6.35
 74
    0
 49
6.35
 74
    0
 49
-6.35
 74
    0
  0
LTYPE
  5
47
330
5
100
AcDbSymbolTableRecord
100
AcDbLinetypeTableRecord
  2
CENTERTINY
 70
    0
  3
Center (.15x) ___ _ ___ _ ___ _ ___ _ ___ _ ___
 72
   65
 73
    4
 40
7.619999999999999
 49
4.7625
 74
    0
 49
-0.9525
 74
    0
 49
0.9525
 74
    0
 49
-0.9525
 74
    0
  0
LTYPE
  5
48
330
5
100
AcDbSymbolTableRecord
100
AcDbLinetypeTableRecord
  2
CENTER2
 70
    0
  3
Center (.5x) ___ _ ___ _ ___ _ ___ _ ___ _ ___
 72
   65
 73
    4
 40
28.575
 49
19.05
 74
    0
 49
-3.175
 74
    0
 49
3.175
 74
    0
 49
-3.175
 74
    0
  0
LTYPE
  5
49
330
5
100
AcDbSymbolTableRecord
100
AcDbLinetypeTableRecord
  2
CENTERX2
 70
    0
  3
Center (2x) ________  __  ________  __  _____
 72
   65
 73
    4
 40
101.6
 49
63.5
 74
    0
 49
-12.7
 74
    0
 49
12.7
 74
    0
 49
-12.7
 74
    0
  0
ENDTAB
  0
TABLE
  2
LAYER
  5
2
330
0
100
AcDbSymbolTable
 70
    1
  0
LAYER
  5
10
330
2
100
AcDbSymbolTableRecord
100
AcDbLayerTableRecord
  2
0
 70
    0
 62
  253
  6
CONTINUOUS
370
   -3
390
F
  0
LAYER
  5
4A
330
2
100
AcDbSymbolTableRecord
100
AcDbLayerTableRecord
  2
DIM
 70
    0
 62
    1
  6
CONTINUOUS
370
   -3
390
F
  0
LAYER
  5
4B
330
2
100
AcDbSymbolTableRecord
100
AcDbLayerTableRecord
  2
LINES
 70
    0
 62
    7
  6
CONTINUOUS
370
    0
390
F
  0
LAYER
  5
4C
330
2
100
AcDbSymbolTableRecord
100
AcDbLayerTableRecord
  2
NOTES
 70
    0
 62
    7
  6
CONTINUOUS
370
   -3
390
F
  0
LAYER
  5
4D
330
2
100
AcDbSymbolTableRecord
100
AcDbLayerTableRecord
  2
OUTLINE
 70
    0
 62
    7
  6
CONTINUOUS
370
   -3
390
F
  0
ENDTAB
  0
TABLE
  2
STYLE
  5
3
330
0
100
AcDbSymbolTable
 70
    3
  0
STYLE
  5
4E
330
2
100
AcDbSymbolTableRecord
100
AcDbTextStyleTableRecord
  2
iso
 70
    0
 40
0
 41
1
 50
0
 71
    0
 42
1
  3
iso
  4

  0
STYLE
  5
4F
330
2
100
AcDbSymbolTableRecord
100
AcDbTextStyleTableRecord
  2
standard
 70
    0
 40
0
 41
1
 50
0
 71
    0
 42
1
  3
standard
  4

  0
ENDTAB
  0
TABLE
  2
VIEW
  5
6
330
0
100
AcDbSymbolTable
 70
    0
  0
ENDTAB
  0
TABLE
  2
UCS
  5
7
330
0
100
AcDbSymbolTable
 70
    0
  0
ENDTAB
  0
TABLE
  2
APPID
  5
9
330
0
100
AcDbSymbolTable
 70
    1
  0
APPID
  5
12
330
9
100
AcDbSymbolTableRecord
100
AcDbRegAppTableRecord
  2
ACAD
 70
    0
  0
APPID
  5
50
330
9
100
AcDbSymbolTableRecord
100
AcDbRegAppTableRecord
  2
LibreCad
 70
    0
  0
ENDTAB
  0
TABLE
  2
DIMSTYLE
  5
A
330
0
100
AcDbSymbolTable
 70
    1
100
AcDbDimStyleTable
 71
    1
  0
DIMSTYLE
105
51
330
A
100
AcDbSymbolTableRecord
100
AcDbDimStyleTableRecord
  2
Standard
 70
    0
 40
1
 41
2.5
 42
0.625
 43
0.38
 44
1.25
 45
0
 46
0
 47
0
 48
0
 49
1
140
2.5
141
0.09
142
0
143
25.4
144
1
145
0
146
1
147
0.625
148
0
 71
    0
 72
    0
 73
    0
 74
    1
 75
    0
 76
    0
 77
    0
 78
    9
 79
    2
170
    0
171
    2
172
    0
173
    0
174
    0
175
    0
176
    0
177
    0
178
    0
179
    0
271
    4
272
    4
273
    2
274
    2
275
    0
276
    0
277
    2
278
    0
279
    0
280
    0
281
    0
282
    0
283
    1
284
    0
285
    0
286
    0
288
    0
289
    3
340
standard
341

371
   -2
372
   -2
  0
ENDTAB
  0
TABLE
  2
BLOCK_RECORD
  5
1
330
0
100
AcDbSymbolTable
 70
    2
  0
BLOCK_RECORD
  5
1F
330
1
100
AcDbSymbolTableRecord
100
AcDbBlockTableRecord
  2
*Model_Space
 70
    0
280
    1
281
    0
  0
BLOCK_RECORD
  5
1E
330
1
100
AcDbSymbolTableRecord
100
AcDbBlockTableRecord
  2
*Paper_Space
 70
    0
280
    1
281
    0
  0
BLOCK_RECORD
  5
52
330
1
100
AcDbSymbolTableRecord
100
AcDbBlockTableRecord
  2
*D8
 70
    0
280
    1
281
    0
  0
BLOCK_RECORD
  5
55
330
1
100
AcDbSymbolTableRecord
100
AcDbBlockTableRecord
  2
*D5
 70
    0
280
    1
281
    0
  0
BLOCK_RECORD
  5
58
330
1
100
AcDbSymbolTableRecord
100
AcDbBlockTableRecord
  2
*D7
 70
    0
280
    1
281
    0
  0
BLOCK_RECORD
  5
5B
330
1
100
AcDbSymbolTableRecord
100
AcDbBlockTableRecord
  2
*D6
 70
    0
280
    1
281
    0
  0
BLOCK_RECORD
  5
5E
330
1
100
AcDbSymbolTableRecord
100
AcDbBlockTableRecord
  2
*D1
 70
    0
280
    1
281
    0
  0
BLOCK_RECORD
  5
61
330
1
100
AcDbSymbolTableRecord
100
AcDbBlockTableRecord
  2
*D4
 70
    0
280
    1
281
    0
  0
BLOCK_RECORD
  5
64
330
1
100
AcDbSymbolTableRecord
100
AcDbBlockTableRecord
  2
*D2
 70
    0
280
    1
281
    0
  0
BLOCK_RECORD
  5
67
330
1
100
AcDbSymbolTableRecord
100
AcDbBlockTableRecord
  2
*D3
 70
    0
280
    1
281
    0
  0
ENDTAB
  0
ENDSEC
  0
SECTION
  2
BLOCKS
  0
BLOCK
  5
20
330
1F
100
AcDbEntity
  8
0
100
AcDbBlockBegin
  2
*Model_Space
 70
    0
 10
0
 20
0
 30
0
  3
*Model_Space
  1

  0
ENDBLK
  5
21
330
1F
100
AcDbEntity
  8
0
100
AcDbBlockEnd
  0
BLOCK
  5
1C
330
1B
100
AcDbEntity
  8
0
100
AcDbBlockBegin
  2
*Paper_Space
 70
    0
 10
0
 20
0
 30
0
  3
*Paper_Space
  1

  0
ENDBLK
  5
1D
330
1F
100
AcDbEntity
  8
0
100
AcDbBlockEnd
  0
BLOCK
  5
53
330
52
100
AcDbEntity
  8
0
100
AcDbBlockBegin
  2
*D8
 70
    1
 10
0
 20
0
  3
*D8
  1

  0
LINE
  5
6A
100
AcDbEntity
  8
DIM
  6
ByBlock
 62
    0
370
   -2
100
AcDbLine
 10
155.625
 20
75.39999999999998
 11
161.25
 21
75.39999999999998
  0
LINE
  5
6B
100
AcDbEntity
  8
DIM
  6
ByBlock
 62
    0
370
   -2
100
AcDbLine
 10
155.625
 20
-2.842170943040401e-14
 11
161.25
 21
-2.842170943040401e-14
  0
LINE
  5
6C
100
AcDbEntity
  8
DIM
  6
ByBlock
 62
    0
370
   -2
100
AcDbLine
 10
160
 20
75.39999999999998
 11
160
 21
-2.842170943040401e-14
  0
SOLID
  5
6D
100
AcDbEntity
  8
DIM
  6
ByBlock
 62
    0
370
   -2
100
AcDbTrace
 10
160
 20
75.39999999999998
 30
0
 11
160.4162846577728
 21
72.89999999999998
 31
0
 12
159.5837153422272
 22
72.89999999999998
 32
0
 13
159.5837153422272
 23
72.89999999999998
 33
0
  0
SOLID
  5
6E
100
AcDbEntity
  8
DIM
  6
ByBlock
 62
    0
370
   -2
100
AcDbTrace
 10
160
 20
-2.842170943040401e-14
 30
0
 11
159.5837153422272
 21
2.499999999999972
 31
0
 12
160.4162846577728
 22
2.499999999999972
 32
0
 13
160.4162846577728
 23
2.499999999999972
 33
0
  0
MTEXT
  5
6F
100
AcDbEntity
  8
DIM
  6
CONTINUOUS
 62
    0
370
   -2
100
AcDbMText
 10
158.125
 20
37.69999999999997
 30
0
 40
2.5
 41
6.111111111111267
 71
    5
 72
    1
  1
75.4
  7
standard
210
0
220
0
230
1
 50
90
 73
    2
 44
1
  0
ENDBLK
  5
54
330
52
100
AcDbEntity
  8
0
100
AcDbBlockEnd
  0
BLOCK
  5
56
330
55
100
AcDbEntity
  8
0
100
AcDbBlockBegin
  2
*D5
 70
    1
 10
0
 20
0
  3
*D5
  1

  0
LINE
  5
70
100
AcDbEntity
  8
DIM
  6
ByBlock
 62
    0
370
   -2
100
AcDbLine
 10
2.930120547809936e-14
 20
159.925
 11
2.995179909014639e-14
 21
170.55
  0
LINE
  5
71
100
AcDbEntity
  8
DIM
  6
ByBlock
 62
    0
370
   -2
100
AcDbLine
 10
155
 20
159.925
 11
155
 21
170.55
  0
LINE
  5
72
100
AcDbEntity
  8
DIM
  6
ByBlock
 62
    0
370
   -2
100
AcDbLine
 10
2.987525866519968e-14
 20
169.3
 11
155
 21
169.3
  0
SOLID
  5
73
100
AcDbEntity
  8
DIM
  6
ByBlock
 62
    0
370
   -2
100
AcDbTrace
 10
2.987525866519968e-14
 20
169.3
 30
0
 11
2.50000000000003
 21
169.7162846577729
 31
0
 12
2.50000000000003
 22
168.8837153422272
 32
0
 13
2.50000000000003
 23
168.8837153422272
 33
0
  0
SOLID
  5
74
100
AcDbEntity
  8
DIM
  6
ByBlock
 62
    0
370
   -2
100
AcDbTrace
 10
155
 20
169.3
 30
0
 11
152.5
 21
168.8837153422271
 31
0
 12
152.5
 22
169.7162846577728
 32
0
 13
152.5
 23
169.7162846577728
 33
0
  0
MTEXT
  5
75
100
AcDbEntity
  8
DIM
  6
CONTINUOUS
 62
    0
370
   -2
100
AcDbMText
 10
77.50000000000003
 20
171.175
 30
0
 40
2.5
 41
4.444444444444756
 71
    5
 72
    1
  1
155
  7
standard
210
0
220
0
230
1
 50
0
 73
    2
 44
1
  0
ENDBLK
  5
57
330
55
100
AcDbEntity
  8
0
100
AcDbBlockEnd
  0
BLOCK
  5
59
330
58
100
AcDbEntity
  8
0
100
AcDbBlockBegin
  2
*D7
 70
    1
 10
0
 20
0
  3
*D7
  1

  0
LINE
  5
76
100
AcDbEntity
  8
DIM
  6
ByBlock
 62
    0
370
   -2
100
AcDbLine
 10
155.625
 20
159.3
 11
161.25
 21
159.3
  0
LINE
  5
77
100
AcDbEntity
  8
DIM
  6
ByBlock
 62
    0
370
   -2
100
AcDbLine
 10
155.625
 20
113.6
 11
161.25
 21
113.6
  0
LINE
  5
78
100
AcDbEntity
  8
DIM
  6
ByBlock
 62
    0
370
   -2
100
AcDbLine
 10
160
 20
159.3
 11
160
 21
113.6
  0
SOLID
  5
79
100
AcDbEntity
  8
DIM
  6
ByBlock
 62
    0
370
   -2
100
AcDbTrace
 10
160
 20
159.3
 30
0
 11
160.4162846577729
 21
156.8
 31
0
 12
159.5837153422272
 22
156.8
 32
0
 13
159.5837153422272
 23
156.8
 33
0
  0
SOLID
  5
7A
100
AcDbEntity
  8
DIM
  6
ByBlock
 62
    0
370
   -2
100
AcDbTrace
 10
160
 20
113.6
 30
0
 11
159.5837153422272
 21
116.1
 31
0
 12
160.4162846577729
 22
116.1
 32
0
 13
160.4162846577729
 23
116.1
 33
0
  0
MTEXT
  5
7B
100
AcDbEntity
  8
DIM
  6
CONTINUOUS
 62
    0
370
   -2
100
AcDbMText
 10
158.125
 20
136.45
 30
0
 40
2.5
 41
6.111111111111267
 71
    5
 72
    1
  1
45.7
  7
standard
210
0
220
0
230
1
 50
90
 73
    2
 44
1
  0
ENDBLK
  5
5A
330
58
100
AcDbEntity
  8
0
100
AcDbBlockEnd
  0
BLOCK
  5
5C
330
5B
100
AcDbEntity
  8
0
100
AcDbBlockBegin
  2
*D6
 70
    1
 10
0
 20
0
  3
*D6
  1

  0
LINE
  5
7C
100
AcDbEntity
  8
DIM
  6
ByBlock
 62
    0
370
   -2
100
AcDbLine
 10
155.625
 20
159.3
 11
171.25
 21
159.3
  0
LINE
  5
7D
100
AcDbEntity
  8
DIM
  6
ByBlock
 62
    0
370
   -2
100
AcDbLine
 10
155.625
 20
-2.842170943040401e-14
 11
171.25
 21
-2.842170943040401e-14
  0
LINE
  5
7E
100
AcDbEntity
  8
DIM
  6
ByBlock
 62
    0
370
   -2
100
AcDbLine
 10
170
 20
159.3
 11
170
 21
-2.842170943040401e-14
  0
SOLID
  5
7F
100
AcDbEntity
  8
DIM
  6
ByBlock
 62
    0
370
   -2
100
AcDbTrace
 10
170
 20
159.3
 30
0
 11
170.4162846577729
 21
156.8
 31
0
 12
169.5837153422272
 22
156.8
 32
0
 13
169.5837153422272
 23
156.8
 33
0
  0
SOLID
  5
80
100
AcDbEntity
  8
DIM
  6
ByBlock
 62
    0
370
   -2
100
AcDbTrace
 10
170
 20
-2.842170943040401e-14
 30
0
 11
169.5837153422272
 21
2.499999999999972
 31
0
 12
170.4162846577728
 22
2.499999999999972
 32
0
 13
170.4162846577728
 23
2.499999999999972
 33
0
  0
MTEXT
  5
81
100
AcDbEntity
  8
DIM
  6
CONTINUOUS
 62
    0
370
   -2
100
AcDbMText
 10
168.125
 20
79.64999999999998
 30
0
 40
2.5
 41
7.222222222222532
 71
    5
 72
    1
  1
159.3
  7
standard
210
0
220
0
230
1
 50
90
 73
    2
 44
1
  0
ENDBLK
  5
5D
330
5B
100
AcDbEntity
  8
0
100
AcDbBlockEnd
  0
BLOCK
  5
5F
330
5E
100
AcDbEntity
  8
0
100
AcDbBlockBegin
  2
*D1
 70
    0
 10
0
 20
0
  3
*D1
  1

  0
LINE
  5
82
100
AcDbEntity
  8
DIM
  6
CONTINUOUS
 62
    7
370
   -1
100
AcDbLine
 10
0
 20
179.6875
 11
159.3
 21
179.6875
  0
SOLID
  5
83
100
AcDbEntity
  8
DIM
  6
CONTINUOUS
 62
    7
370
   -1
100
AcDbTrace
 10
0
 20
179.6875
 30
0
 11
2.5
 21
180.103784658
 31
0
 12
2.5
 22
179.271215342
 32
0
 13
2.5
 23
179.271215342
 33
0
  0
SOLID
  5
84
100
AcDbEntity
  8
DIM
  6
CONTINUOUS
 62
    7
370
   -1
100
AcDbTrace
 10
159.3
 20
179.6875
 30
0
 11
156.8
 21
179.271215342
 31
0
 12
156.8
 22
180.103784658
 32
0
 13
156.8
 23
180.103784658
 33
0
  0
TEXT
  5
85
100
AcDbEntity
  8
DIM
  6
CONTINUOUS
 62
    7
370
   -1
100
AcDbText
 10
79.65000000000001
 20
181.5625
 30
0
 40
2.5
  1
159.3
 50
0
 41
1
 51
0
  7
standard
 71
    0
 72
    1
 11
79.65000000000001
 21
181.5625
 31
0
210
0
220
0
230
1
100
AcDbText
 73
    2
  0
LINE
  5
86
100
AcDbEntity
  8
DIM
  6
CONTINUOUS
 62
    7
370
   -1
100
AcDbLine
 10
3.82702124734e-17
 20
155.625
 11
7.65404249467e-17
 21
180.9375
  0
LINE
  5
87
100
AcDbEntity
  8
DIM
  6
CONTINUOUS
 62
    7
370
   -1
100
AcDbLine
 10
159.3
 20
155.625
 11
159.3
 21
180.9375
  0
ENDBLK
  5
60
330
5E
100
AcDbEntity
  8
0
100
AcDbBlockEnd
  0
BLOCK
  5
62
330
61
100
AcDbEntity
  8
0
100
AcDbBlockBegin
  2
*D4
 70
    0
 10
0
 20
0
  3
*D4
  1

  0
LINE
  5
88
100
AcDbEntity
  8
DIM
  6
CONTINUOUS
 62
    7
370
   -1
100
AcDbLine
 10
-19.375
 20
155
 11
-19.375
 21
1.37667655054e-15
  0
SOLID
  5
89
100
AcDbEntity
  8
DIM
  6
CONTINUOUS
 62
    7
370
   -1
100
AcDbTrace
 10
-19.375
 20
155
 30
0
 11
-18.9587153422
 21
152.5
 31
0
 12
-19.7912846578
 22
152.5
 32
0
 13
-19.7912846578
 23
152.5
 33
0
  0
SOLID
  5
8A
100
AcDbEntity
  8
DIM
  6
CONTINUOUS
 62
    7
370
   -1
100
AcDbTrace
 10
-19.375
 20
1.37667655054e-15
 30
0
 11
-19.7912846578
 21
2.5
 31
0
 12
-18.9587153422
 22
2.5
 32
0
 13
-18.9587153422
 23
2.5
 33
0
  0
TEXT
  5
8B
100
AcDbEntity
  8
DIM
  6
CONTINUOUS
 62
    7
370
   -1
100
AcDbText
 10
-21.25
 20
77.5
 30
0
 40
2.5
  1
155
 50
90
 41
1
 51
0
  7
standard
 71
    0
 72
    1
 11
-21.25
 21
77.5
 31
0
210
0
220
0
230
1
100
AcDbText
 73
    2
  0
LINE
  5
8C
100
AcDbEntity
  8
DIM
  6
CONTINUOUS
 62
    7
370
   -1
100
AcDbLine
 10
-0.625
 20
155
 11
-20.625
 21
155
  0
LINE
  5
8D
100
AcDbEntity
  8
DIM
  6
CONTINUOUS
 62
    7
370
   -1
100
AcDbLine
 10
-0.625
 20
7.65404249467e-17
 11
-20.625
 21
1.52975740043e-15
  0
ENDBLK
  5
63
330
61
100
AcDbEntity
  8
0
100
AcDbBlockEnd
  0
BLOCK
  5
65
330
64
100
AcDbEntity
  8
0
100
AcDbBlockBegin
  2
*D2
 70
    0
 10
0
 20
0
  3
*D2
  1

  0
LINE
  5
8E
100
AcDbEntity
  8
DIM
  6
CONTINUOUS
 62
    7
370
   -1
100
AcDbLine
 10
-7.1054273576e-15
 20
164.0625
 11
45.7
 21
164.0625
  0
SOLID
  5
8F
100
AcDbEntity
  8
DIM
  6
CONTINUOUS
 62
    7
370
   -1
100
AcDbTrace
 10
-7.1054273576e-15
 20
164.0625
 30
0
 11
2.5
 21
164.478784658
 31
0
 12
2.5
 22
163.646215342
 32
0
 13
2.5
 23
163.646215342
 33
0
  0
SOLID
  5
90
100
AcDbEntity
  8
DIM
  6
CONTINUOUS
 62
    7
370
   -1
100
AcDbTrace
 10
45.7
 20
164.0625
 30
0
 11
43.2
 21
163.646215342
 31
0
 12
43.2
 22
164.478784658
 32
0
 13
43.2
 23
164.478784658
 33
0
  0
TEXT
  5
91
100
AcDbEntity
  8
DIM
  6
CONTINUOUS
 62
    7
370
   -1
100
AcDbText
 10
22.85
 20
165.9375
 30
0
 40
2.5
  1
45.7
 50
0
 41
1
 51
0
  7
standard
 71
    0
 72
    1
 11
22.85
 21
165.9375
 31
0
210
0
220
0
230
1
100
AcDbText
 73
    2
  0
LINE
  5
92
100
AcDbEntity
  8
DIM
  6
CONTINUOUS
 62
    7
370
   -1
100
AcDbLine
 10
-5.16841299839e-16
 20
155.625
 11
-8.13910995728e-15
 21
165.3125
  0
LINE
  5
93
100
AcDbEntity
  8
DIM
  6
CONTINUOUS
 62
    7
370
   -1
100
AcDbLine
 10
45.7
 20
155.625
 11
45.7
 21
165.3125
  0
ENDBLK
  5
66
330
64
100
AcDbEntity
  8
0
100
AcDbBlockEnd
  0
BLOCK
  5
68
330
67
100
AcDbEntity
  8
0
100
AcDbBlockBegin
  2
*D3
 70
    0
 10
0
 20
0
  3
*D3
  1

  0
LINE
  5
94
100
AcDbEntity
  8
DIM
  6
CONTINUOUS
 62
    7
370
   -1
100
AcDbLine
 10
83.90000000000001
 20
164.375
 11
159.3
 21
164.375
  0
SOLID
  5
95
100
AcDbEntity
  8
DIM
  6
CONTINUOUS
 62
    7
370
   -1
100
AcDbTrace
 10
83.90000000000001
 20
164.375
 30
0
 11
86.40000000000001
 21
164.791284658
 31
0
 12
86.40000000000001
 22
163.958715342
 32
0
 13
86.40000000000001
 23
163.958715342
 33
0
  0
SOLID
  5
96
100
AcDbEntity
  8
DIM
  6
CONTINUOUS
 62
    7
370
   -1
100
AcDbTrace
 10
159.3
 20
164.375
 30
0
 11
156.8
 21
163.958715342
 31
0
 12
156.8
 22
164.791284658
 32
0
 13
156.8
 23
164.791284658
 33
0
  0
TEXT
  5
97
100
AcDbEntity
  8
DIM
  6
CONTINUOUS
 62
    7
370
   -1
100
AcDbText
 10
121.6
 20
166.25
 30
0
 40
2.5
  1
75.4
 50
0
 41
1
 51
0
  7
standard
 71
    0
 72
    1
 11
121.6
 21
166.25
 31
0
210
0
220
0
230
1
100
AcDbText
 73
    2
  0
LINE
  5
98
100
AcDbEntity
  8
DIM
  6
CONTINUOUS
 62
    7
370
   -1
100
AcDbLine
 10
83.90000000000001
 20
155.625
 11
83.90000000000001
 21
165.625
  0
LINE
  5
99
100
AcDbEntity
  8
DIM
  6
CONTINUOUS
 62
    7
370
   -1
100
AcDbLine
 10
159.3
 20
155.625
 11
159.3
 21
165.625
  0
ENDBLK
  5
69
330
67
100
AcDbEntity
  8
0
100
AcDbBlockEnd
  0
ENDSEC
  0
SECTION
  2
ENTITIES
  0
TEXT
  5
9A
100
AcDbEntity
  8
NOTES
  6
ByLayer
 62
  256
370
   -1
100
AcDbText
 10
33.125
 20
201.25
 30
0
 40
3
  1
All dimensions are in milimeters
 50
0
 41
1
 51
0
  7
iso
 71
    0
 72
    1
 11
33.125
 21
201.25
 31
0
210
0
220
0
230
1
100
AcDbText
  0
LINE
  5
9B
100
AcDbEntity
  8
OUTLINE
  6
ByLayer
 62
  256
370
   -1
100
AcDbLine
 10
155
 20
159.3
 11
155
 21
-2.842170943040401e-14
  0
LINE
  5
9C
100
AcDbEntity
  8
OUTLINE
  6
ByLayer
 62
  256
370
   -1
100
AcDbLine
 10
155
 20
-2.842170943040401e-14
 11
0
 21
0
  0
LINE
  5
9D
100
AcDbEntity
  8
OUTLINE
  6
ByLayer
 62
  256
370
   -1
100
AcDbLine
 10
0
 20
0
 11
2.9262935265626e-14
 21
159.3
  0
LINE
  5
9E
100
AcDbEntity
  8
OUTLINE
  6
ByLayer
 62
  256
370
   -1
100
AcDbLine
 10
2.9262935265626e-14
 20
159.3
 11
155
 21
159.3
  0
LINE
  5
9F
100
AcDbEntity
  8
LINES
  6
ByLayer
 62
  256
370
   -1
100
AcDbLine
 10
2.9262935265626e-14
 20
159.3
 11
0
 21
0
  0
LINE
  5
A0
100
AcDbEntity
  8
LINES
  6
ByLayer
 62
  256
370
   -1
100
AcDbLine
 10
0
 20
0
 11
155
 21
-2.842170943040401e-14
  0
LINE
  5
A1
100
AcDbEntity
  8
LINES
  6
ByLayer
 62
  256
370
   -1
100
AcDbLine
 10
155
 20
-2.842170943040401e-14
 11
155
 21
159.3
  0
LINE
  5
A2
100
AcDbEntity
  8
LINES
  6
ByLayer
 62
  256
370
   -1
100
AcDbLine
 10
155
 20
159.3
 11
2.9262935265626e-14
 21
159.3
  0
LINE
  5
A3
100
AcDbEntity
  8
LINES
  6
ByLayer
 62
  256
370
   -1
100
AcDbLine
 10
2.87210290570033e-14
 20
156.35
 11
155
 21
156.35
  0
LINE
  5
A4
100
AcDbEntity
  8
LINES
  6
ByLayer
 62
  256
370
   -1
100
AcDbLine
 10
2.816993799738699e-14
 20
153.35
 11
155
 21
153.35
  0
LINE
  5
A5
100
AcDbEntity
  8
LINES
  6
ByLayer
 62
  256
370
   -1
100
AcDbLine
 10
2.761884693777068e-14
 20
150.35
 11
155
 21
150.35
  0
LINE
  5
A6
100
AcDbEntity
  8
LINES
  6
ByLayer
 62
  256
370
   -1
100
AcDbLine
 10
2.706775587815437e-14
 20
147.35
 11
155
 21
147.35
  0
LINE
  5
A7
100
AcDbEntity
  8
LINES
  6
ByLayer
 62
  256
370
   -1
100
AcDbLine
 10
2.651666481853807e-14
 20
144.35
 11
155
 21
144.35
  0
LINE
  5
A8
100
AcDbEntity
  8
LINES
  6
ByLayer
 62
  256
370
   -1
100
AcDbLine
 10
2.596557375892175e-14
 20
141.35
 11
155
 21
141.35
  0
LINE
  5
A9
100
AcDbEntity
  8
LINES
  6
ByLayer
 62
  256
370
   -1
100
AcDbLine
 10
2.541448269930545e-14
 20
138.35
 11
155
 21
138.35
  0
LINE
  5
AA
100
AcDbEntity
  8
LINES
  6
ByLayer
 62
  256
370
   -1
100
AcDbLine
 10
2.486339163968914e-14
 20
135.35
 11
155
 21
135.35
  0
LINE
  5
AB
100
AcDbEntity
  8
LINES
  6
ByLayer
 62
  256
370
   -1
100
AcDbLine
 10
2.431230058007283e-14
 20
132.35
 11
155
 21
132.35
  0
LINE
  5
AC
100
AcDbEntity
  8
LINES
  6
ByLayer
 62
  256
370
   -1
100
AcDbLine
 10
2.376120952045652e-14
 20
129.35
 11
155
 21
129.35
  0
LINE
  5
AD
100
AcDbEntity
  8
LINES
  6
ByLayer
 62
  256
370
   -1
100
AcDbLine
 10
2.321011846084021e-14
 20
126.35
 11
155
 21
126.35
  0
LINE
  5
AE
100
AcDbEntity
  8
LINES
  6
ByLayer
 62
  256
370
   -1
100
AcDbLine
 10
2.26590274012239e-14
 20
123.35
 11
155
 21
123.35
  0
LINE
  5
AF
100
AcDbEntity
  8
LINES
  6
ByLayer
 62
  256
370
   -1
100
AcDbLine
 10
2.210793634160759e-14
 20
120.35
 11
155
 21
120.35
  0
LINE
  5
B0
100
AcDbEntity
  8
LINES
  6
ByLayer
 62
  256
370
   -1
100
AcDbLine
 10
2.155684528199128e-14
 20
117.35
 11
155
 21
117.35
  0
LINE
  5
B1
100
AcDbEntity
  8
LINES
  6
ByLayer
 62
  256
370
   -1
100
AcDbLine
 10
2.100575422237497e-14
 20
114.35
 11
155
 21
114.35
  0
LINE
  5
B2
100
AcDbEntity
  8
LINES
  6
ByLayer
 62
  256
370
   -1
100
AcDbLine
 10
2.08679814574709e-14
 20
113.6
 11
155
 21
113.6
  0
LINE
  5
B3
100
AcDbEntity
  8
LINES
  6
ByLayer
 62
  256
370
   -1
100
AcDbLine
 10
1.385075529835656e-14
 20
75.40000000000001
 11
155
 21
75.39999999999998
  0
LINE
  5
B4
100
AcDbEntity
  8
LINES
  6
ByLayer
 62
  256
370
   -1
100
AcDbLine
 10
1.371298253345248e-14
 20
74.65000000000001
 11
155
 21
74.64999999999998
  0
LINE
  5
B5
100
AcDbEntity
  8
LINES
  6
ByLayer
 62
  256
370
   -1
100
AcDbLine
 10
1.316189147383618e-14
 20
71.65000000000001
 11
155
 21
71.64999999999998
  0
LINE
  5
B6
100
AcDbEntity
  8
LINES
  6
ByLayer
 62
  256
370
   -1
100
AcDbLine
 10
1.261080041421987e-14
 20
68.65000000000001
 11
155
 21
68.64999999999998
  0
LINE
  5
B7
100
AcDbEntity
  8
LINES
  6
ByLayer
 62
  256
370
   -1
100
AcDbLine
 10
1.205970935460356e-14
 20
65.65000000000001
 11
155
 21
65.64999999999998
  0
LINE
  5
B8
100
AcDbEntity
  8
LINES
  6
ByLayer
 62
  256
370
   -1
100
AcDbLine
 10
1.150861829498725e-14
 20
62.65000000000001
 11
155
 21
62.64999999999998
  0
LINE
  5
B9
100
AcDbEntity
  8
LINES
  6
ByLayer
 62
  256
370
   -1
100
AcDbLine
 10
1.095752723537094e-14
 20
59.65000000000001
 11
155
 21
59.64999999999998
  0
LINE
  5
BA
100
AcDbEntity
  8
LINES
  6
ByLayer
 62
  256
370
   -1
100
AcDbLine
 10
1.040643617575463e-14
 20
56.65000000000001
 11
155
 21
56.64999999999998
  0
LINE
  5
BB
100
AcDbEntity
  8
LINES
  6
ByLayer
 62
  256
370
   -1
100
AcDbLine
 10
9.855345116138324e-15
 20
53.65000000000001
 11
155
 21
53.64999999999998
  0
LINE
  5
BC
100
AcDbEntity
  8
LINES
  6
ByLayer
 62
  256
370
   -1
100
AcDbLine
 10
9.304254056522013e-15
 20
50.65000000000001
 11
155
 21
50.64999999999998
  0
LINE
  5
BD
100
AcDbEntity
  8
LINES
  6
ByLayer
 62
  256
370
   -1
100
AcDbLine
 10
8.753162996905705e-15
 20
47.65000000000001
 11
155
 21
47.64999999999998
  0
LINE
  5
BE
100
AcDbEntity
  8
LINES
  6
ByLayer
 62
  256
370
   -1
100
AcDbLine
 10
8.202071937289397e-15
 20
44.65000000000001
 11
155
 21
44.64999999999998
  0
LINE
  5
BF
100
AcDbEntity
  8
LINES
  6
ByLayer
 62
  256
370
   -1
100
AcDbLine
 10
7.650980877673088e-15
 20
41.65000000000001
 11
155
 21
41.64999999999998
  0
LINE
  5
C0
100
AcDbEntity
  8
LINES
  6
ByLayer
 62
  256
370
   -1
100
AcDbLine
 10
7.099889818056777e-15
 20
38.65000000000001
 11
155
 21
38.64999999999998
  0
LINE
  5
C1
100
AcDbEntity
  8
LINES
  6
ByLayer
 62
  256
370
   -1
100
AcDbLine
 10
6.548798758440469e-15
 20
35.65000000000001
 11
155
 21
35.64999999999998
  0
LINE
  5
C2
100
AcDbEntity
  8
LINES
  6
ByLayer
 62
  256
370
   -1
100
AcDbLine
 10
5.997707698824161e-15
 20
32.65000000000001
 11
155
 21
32.64999999999998
  0
LINE
  5
C3
100
AcDbEntity
  8
LINES
  6
ByLayer
 62
  256
370
   -1
100
AcDbLine
 10
5.446616639207853e-15
 20
29.65000000000001
 11
155
 21
29.64999999999998
  0
LINE
  5
C4
100
AcDbEntity
  8
LINES
  6
ByLayer
 62
  256
370
   -1
100
AcDbLine
 10
4.895525579591544e-15
 20
26.65000000000001
 11
155
 21
26.64999999999998
  0
LINE
  5
C5
100
AcDbEntity
  8
LINES
  6
ByLayer
 62
  256
370
   -1
100
AcDbLine
 10
4.344434519975233e-15
 20
23.65000000000001
 11
155
 21
23.64999999999998
  0
LINE
  5
C6
100
AcDbEntity
  8
LINES
  6
ByLayer
 62
  256
370
   -1
100
AcDbLine
 10
3.793343460358925e-15
 20
20.65000000000001
 11
155
 21
20.64999999999998
  0
LINE
  5
C7
100
AcDbEntity
  8
LINES
  6
ByLayer
 62
  256
370
   -1
100
AcDbLine
 10
3.242252400742617e-15
 20
17.65000000000001
 11
155
 21
17.64999999999998
  0
LINE
  5
C8
100
AcDbEntity
  8
LINES
  6
ByLayer
 62
  256
370
   -1
100
AcDbLine
 10
2.691161341126309e-15
 20
14.65000000000001
 11
155
 21
14.64999999999998
  0
LINE
  5
C9
100
AcDbEntity
  8
LINES
  6
ByLayer
 62
  256
370
   -1
100
AcDbLine
 10
2.140070281509997e-15
 20
11.65000000000001
 11
155
 21
11.64999999999998
  0
LINE
  5
CA
100
AcDbEntity
  8
LINES
  6
ByLayer
 62
  256
370
   -1
100
AcDbLine
 10
1.588979221893689e-15
 20
8.650000000000006
 11
155
 21
8.649999999999977
  0
LINE
  5
CB
100
AcDbEntity
  8
LINES
  6
ByLayer
 62
  256
370
   -1
100
AcDbLine
 10
1.037888162277381e-15
 20
5.650000000000006
 11
155
 21
5.649999999999977
  0
LINE
  5
CC
100
AcDbEntity
  8
LINES
  6
ByLayer
 62
  256
370
   -1
100
AcDbLine
 10
4.867971026610728e-16
 20
2.650000000000006
 11
155
 21
2.649999999999977
  0
DIMENSION
  5
CD
100
AcDbEntity
  8
DIM
  6
ByLayer
 62
  256
370
   -1
100
AcDbDimension
  2
*D5
 10
155
 20
169.3
 30
0
 11
77.50000000000003
 21
171.175
 31
0
 70
   33
 71
    5
  3
Standard
 53
0
210
0
220
0
230
1
100
AcDbAlignedDimension
 13
2.9262935265626e-14
 23
159.3
 33
0
 14
155
 24
159.3
 34
0
  0
DIMENSION
  5
CE
100
AcDbEntity
  8
DIM
  6
ByLayer
 62
  256
370
   -1
100
AcDbDimension
  2
*D6
 10
170
 20
-2.842170943040401e-14
 30
0
 11
168.125
 21
79.64999999999998
 31
0
 70
   33
 71
    5
  3
Standard
 53
0
210
0
220
0
230
1
100
AcDbAlignedDimension
 13
155
 23
159.3
 33
0
 14
155
 24
-2.842170943040401e-14
 34
0
  0
DIMENSION
  5
CF
100
AcDbEntity
  8
DIM
  6
ByLayer
 62
  256
370
   -1
100
AcDbDimension
  2
*D7
 10
160
 20
113.6
 30
0
 11
158.125
 21
136.45
 31
0
 70
   33
 71
    5
  3
Standard
 53
0
210
0
220
0
230
1
100
AcDbAlignedDimension
 13
155
 23
159.3
 33
0
 14
155
 24
113.6
 34
0
  0
DIMENSION
  5
D0
100
AcDbEntity
  8
DIM
  6
ByLayer
 62
  256
370
   -1
100
AcDbDimension
  2
*D8
 10
160
 20
-2.842170943040401e-14
 30
0
 11
158.125
 21
37.69999999999997
 31
0
 70
   33
 71
    5
  3
Standard
 53
0
210
0
220
0
230
1
100
AcDbAlignedDimension
 13
155
 23
75.39999999999998
 33
0
 14
155
 24
-2.842170943040401e-14
 34
0
  0
TEXT
  5
D1
100
AcDbEntity
  8
NOTES
  6
ByLayer
 62
  256
370
   -1
100
AcDbText
 10
160
 20
93.74444444444434
 30
0
 40
4
  1
Back
 50
270
 41
1
 51
0
  7
iso
 71
    0
 72
    1
 11
160
 21
93.74444444444434
 31
0
210
0
220
0
230
1
100
AcDbText
  0
TEXT
  5
D2
100
AcDbEntity
  8
NOTES
  6
ByLayer
 62
  256
370
   -1
100
AcDbText
 10
-9.999999999999984
 20
92.63333333333325
 30
0
 40
4
  1
Front
 50
270
 41
1
 51
0
  7
iso
 71
    0
 72
    1
 11
-9.999999999999984
 21
92.63333333333325
 31
0
210
0
220
0
230
1
100
AcDbText
  0
ENDSEC
  0
SECTION
  2
OBJECTS
  0
DICTIONARY
  5
C
330
0
100
AcDbDictionary
281
    1
  3
ACAD_GROUP
350
D
  0
DICTIONARY
  5
D
330
C
100
AcDbDictionary
281
    1
  0
ENDSEC
  0
EOF
