999
dxfrw 0.5.11
0
SECTION
2
HEADER
9
$ACADVER
1
AC1009
9
$DWGCODEPAGE
3
ANSI_1252
9
$INSBASE
10
0
20
0
30
0
9
$EXTMIN
10
10000000000
20
10000000000
30
0
9
$EXTMAX
10
-10000000000
20
-10000000000
30
0
9
$LIMMIN
10
0
20
0
9
$LIMMAX
10
420
20
297
9
$ORTHOMODE
70
0
9
$LTSCALE
40
1
9
$TEXTSTYLE
7
STANDARD
9
$CLAYER
8
HATCH
9
$DIMASZ
40
2.5
9
$DIMLFAC
40
1
9
$DIMSCALE
40
1
9
$DIMEXO
40
0.625
9
$DIMEXE
40
1.25
9
$DIMTXT
40
2.5
9
$DIMTSZ
40
0
9
$DIMUNIT
70
2
9
$DIMSTYLE
2
STANDARD
9
$DIMGAP
40
0.625
9
$DIMTIH
70
0
9
$LUNITS
70
2
9
$LUPREC
70
4
9
$AUNITS
70
0
9
$AUPREC
70
2
9
$GRIDMODE
70
1
9
$SNAPSTYLE
70
0
9
$PLIMMIN
10
0
20
0
9
$PLIMMAX
10
210
20
297
0
ENDSEC
0
SECTION
2
CLASSES
0
ENDSEC
0
SECTION
2
TABLES
0
TABLE
2
VPORT
70
1
0
VPORT
2
*ACTIVE
70
0
10
0
20
0
11
1
21
1
12
155.892857143
22
103.086734694
13
0
23
0
14
10
24
10
15
10
25
10
16
0
26
0
36
1
17
0
27
0
37
0
40
225
41
2.32448979592
42
50
43
0
44
0
50
0
51
0
71
0
72
100
73
1
74
3
75
0
76
1
77
0
78
0
0
ENDTAB
0
TABLE
2
LTYPE
70
4
0
LTYPE
2
BYBLOCK
70
0
3

72
65
73
0
40
0
0
LTYPE
2
BYLAYER
70
0
3

72
65
73
0
40
0
0
LTYPE
2
CONTINUOUS
70
0
3
Solid line
72
65
73
0
40
0
0
LTYPE
2
DOT
70
0
3
Dot . . . . . . . . . . . . . . . . . . . . . .
72
65
73
2
40
6.35
49
0
49
-6.35
0
LTYPE
2
DOT2
70
0
3
Dot (.5x) .....................................
72
65
73
2
40
3.175
49
0
49
-3.175
0
LTYPE
2
DOTX2
70
0
3
Dot (2x) .  .  .  .  .  .  .  .  .  .  .  .  .
72
65
73
2
40
12.7
49
0
49
-12.7
0
LTYPE
2
DASHED
70
0
3
Dot . . . . . . . . . . . . . . . . . . . . . .
72
65
73
2
40
19.05
49
12.7
49
-6.35
0
LTYPE
2
DASHED2
70
0
3
Dashed (.5x) _ _ _ _ _ _ _ _ _ _ _ _ _ _ _ _ _
72
65
73
2
40
9.525
49
6.35
49
-3.175
0
LTYPE
2
DASHEDX2
70
0
3
Dashed (2x) ____  ____  ____  ____  ____  ___
72
65
73
2
40
38.1
49
25.4
49
-12.7
0
LTYPE
2
DASHDOT
70
0
3
Dash dot __ . __ . __ . __ . __ . __ . __ . __
72
65
73
4
40
25.4
49
12.7
49
-6.35
49
0
49
-6.35
0
LTYPE
2
DASHDOT2
70
0
3
Dash dot (.5x) _._._._._._._._._._._._._._._.
72
65
73
4
40
12.7
49
6.35
49
-3.175
49
0
49
-3.175
0
LTYPE
2
DASHDOTX2
70
0
3
Dash dot (2x) ____  .  ____  .  ____  .  ___
72
65
73
4
40
50.8
49
25.4
49
-12.7
49
0
49
-12.7
0
LTYPE
2
DIVIDE
70
0
3
Divide ____ . . ____ . . ____ . . ____ . . ____
72
65
73
6
40
31.75
49
12.7
49
-6.35
49
0
49
-6.35
49
0
49
-6.35
0
LTYPE
2
DIVIDE2
70
0
3
Divide (.5x) __..__..__..__..__..__..__..__.._
72
65
73
6
40
15.875
49
6.35
49
-3.175
49
0
49
-3.175
49
0
49
-3.175
0
LTYPE
2
DIVIDEX2
70
0
3
Divide (2x) ________  .  .  ________  .  .  _
72
65
73
6
40
63.5
49
25.4
49
-12.7
49
0
49
-12.7
49
0
49
-12.7
0
LTYPE
2
BORDER
70
0
3
Border __ __ . __ __ . __ __ . __ __ . __ __ .
72
65
73
6
40
44.45
49
12.7
49
-6.35
49
12.7
49
-6.35
49
0
49
-6.35
0
LTYPE
2
BORDER2
70
0
3
Border (.5x) __.__.__.__.__.__.__.__.__.__.__.
72
65
73
6
40
22.225
49
6.35
49
-3.175
49
6.35
49
-3.175
49
0
49
-3.175
0
LTYPE
2
BORDERX2
70
0
3
Border (2x) ____  ____  .  ____  ____  .  ___
72
65
73
6
40
88.9
49
25.4
49
-12.7
49
25.4
49
-12.7
49
0
49
-12.7
0
LTYPE
2
CENTER
70
0
3
Center ____ _ ____ _ ____ _ ____ _ ____ _ ____
72
65
73
4
40
50.8
49
31.75
49
-6.35
49
6.35
49
-6.35
0
LTYPE
2
CENTER2
70
0
3
Center (.5x) ___ _ ___ _ ___ _ ___ _ ___ _ ___
72
65
73
4
40
28.575
49
19.05
49
-3.175
49
3.175
49
-3.175
0
LTYPE
2
CENTERX2
70
0
3
Center (2x) ________  __  ________  __  _____
72
65
73
4
40
101.6
49
63.5
49
-12.7
49
12.7
49
-12.7
0
ENDTAB
0
TABLE
2
LAYER
70
1
0
LAYER
2
0
70
4
62
253
6
CONTINUOUS
0
LAYER
2
DIM
70
0
62
1
6
CONTINUOUS
0
LAYER
2
HATCH
70
0
62
7
6
CONTINUOUS
0
LAYER
2
IMAGE
70
0
62
7
6
CONTINUOUS
0
LAYER
2
NOTES
70
4
62
7
6
CONTINUOUS
0
ENDTAB
0
TABLE
2
STYLE
70
3
0
STYLE
2
ISO
70
0
40
0
41
1
50
0
71
0
42
1
3
ISO
4

0
STYLE
2
STANDARD
70
0
40
0
41
1
50
0
71
0
42
1
3
TXT
4

0
ENDTAB
0
TABLE
2
VIEW
70
0
0
ENDTAB
0
TABLE
2
UCS
70
0
0
ENDTAB
0
TABLE
2
APPID
70
1
0
APPID
2
ACAD
70
0
0
ENDTAB
0
TABLE
2
DIMSTYLE
70
1
0
DIMSTYLE
2
STANDARD
70
0
3

4

5

6

7

40
1
41
2.5
42
0.625
43
0.38
44
1.25
45
0
46
0
47
0
48
0
140
2.5
141
0.09
142
0
143
25.4
144
1
145
0
146
1
147
0.625
71
0
72
0
73
0
74
1
75
0
76
0
77
0
78
0
170
0
171
2
172
0
173
0
174
0
175
0
176
0
177
0
178
0
0
ENDTAB
0
ENDSEC
0
SECTION
2
BLOCKS
0
BLOCK
8
0
2
$MODEL_SPACE
70
0
10
0
20
0
30
0
3
$MODEL_SPACE
1

0
ENDBLK
8
0
0
BLOCK
8
0
2
$PAPER_SPACE
70
0
10
0
20
0
30
0
3
$PAPER_SPACE
1

0
ENDBLK
8
0
0
BLOCK
8
0
2
*D1
70
1
10
0
20
0
3
*D1
1

0
LINE
5
31
8
DIM
6
CONTINUOUS
62
7
10
0
20
179.6875
11
159.3
21
179.6875
0
SOLID
5
32
8
DIM
6
CONTINUOUS
62
7
10
0
20
179.6875
30
0
11
2.5
21
180.103784658
31
0
12
2.5
22
179.271215342
32
0
13
2.5
23
179.271215342
33
0
0
SOLID
5
33
8
DIM
6
CONTINUOUS
62
7
10
159.3
20
179.6875
30
0
11
156.8
21
179.271215342
31
0
12
156.8
22
180.103784658
32
0
13
156.8
23
180.103784658
33
0
0
TEXT
5
34
8
DIM
6
CONTINUOUS
62
7
10
79.65
20
181.5625
30
0
40
2.5
1
159.3
50
0
41
1
51
0
7
STANDARD
71
0
72
1
11
79.65
21
181.5625
31
0
210
0
220
0
230
1
73
2
0
LINE
5
35
8
DIM
6
CONTINUOUS
62
7
10
3.82702124734e-17
20
155.625
11
7.65404249467e-17
21
180.9375
0
LINE
5
36
8
DIM
6
CONTINUOUS
62
7
10
159.3
20
155.625
11
159.3
21
180.9375
0
ENDBLK
8
0
0
BLOCK
8
0
2
*D4
70
1
10
0
20
0
3
*D4
1

0
LINE
5
37
8
DIM
6
CONTINUOUS
62
7
10
-19.375
20
155
11
-19.375
21
1.37667655054e-15
0
SOLID
5
38
8
DIM
6
CONTINUOUS
62
7
10
-19.375
20
155
30
0
11
-18.9587153422
21
152.5
31
0
12
-19.7912846578
22
152.5
32
0
13
-19.7912846578
23
152.5
33
0
0
SOLID
5
39
8
DIM
6
CONTINUOUS
62
7
10
-19.375
20
1.37667655054e-15
30
0
11
-19.7912846578
21
2.5
31
0
12
-18.9587153422
22
2.5
32
0
13
-18.9587153422
23
2.5
33
0
0
TEXT
5
3A
8
DIM
6
CONTINUOUS
62
7
10
-21.25
20
77.5
30
0
40
2.5
1
155
50
90
41
1
51
0
7
STANDARD
71
0
72
1
11
-21.25
21
77.5
31
0
210
0
220
0
230
1
73
2
0
LINE
5
3B
8
DIM
6
CONTINUOUS
62
7
10
-0.625
20
155
11
-20.625
21
155
0
LINE
5
3C
8
DIM
6
CONTINUOUS
62
7
10
-0.625
20
7.65404249467e-17
11
-20.625
21
1.52975740043e-15
0
ENDBLK
8
0
0
BLOCK
8
0
2
*D2
70
1
10
0
20
0
3
*D2
1

0
LINE
5
3D
8
DIM
6
CONTINUOUS
62
7
10
-7.1054273576e-15
20
164.0625
11
45.7
21
164.0625
0
SOLID
5
3E
8
DIM
6
CONTINUOUS
62
7
10
-7.1054273576e-15
20
164.0625
30
0
11
2.5
21
164.478784658
31
0
12
2.5
22
163.646215342
32
0
13
2.5
23
163.646215342
33
0
0
SOLID
5
3F
8
DIM
6
CONTINUOUS
62
7
10
45.7
20
164.0625
30
0
11
43.2
21
163.646215342
31
0
12
43.2
22
164.478784658
32
0
13
43.2
23
164.478784658
33
0
0
TEXT
5
40
8
DIM
6
CONTINUOUS
62
7
10
22.85
20
165.9375
30
0
40
2.5
1
45.7
50
0
41
1
51
0
7
STANDARD
71
0
72
1
11
22.85
21
165.9375
31
0
210
0
220
0
230
1
73
2
0
LINE
5
41
8
DIM
6
CONTINUOUS
62
7
10
-5.16841299839e-16
20
155.625
11
-8.13910995728e-15
21
165.3125
0
LINE
5
42
8
DIM
6
CONTINUOUS
62
7
10
45.7
20
155.625
11
45.7
21
165.3125
0
ENDBLK
8
0
0
BLOCK
8
0
2
*D3
70
1
10
0
20
0
3
*D3
1

0
LINE
5
43
8
DIM
6
CONTINUOUS
62
7
10
83.9
20
164.375
11
159.3
21
164.375
0
SOLID
5
44
8
DIM
6
CONTINUOUS
62
7
10
83.9
20
164.375
30
0
11
86.4
21
164.791284658
31
0
12
86.4
22
163.958715342
32
0
13
86.4
23
163.958715342
33
0
0
SOLID
5
45
8
DIM
6
CONTINUOUS
62
7
10
159.3
20
164.375
30
0
11
156.8
21
163.958715342
31
0
12
156.8
22
164.791284658
32
0
13
156.8
23
164.791284658
33
0
0
TEXT
5
46
8
DIM
6
CONTINUOUS
62
7
10
121.6
20
166.25
30
0
40
2.5
1
75.4
50
0
41
1
51
0
7
STANDARD
71
0
72
1
11
121.6
21
166.25
31
0
210
0
220
0
230
1
73
2
0
LINE
5
47
8
DIM
6
CONTINUOUS
62
7
10
83.9
20
155.625
11
83.9
21
165.625
0
LINE
5
48
8
DIM
6
CONTINUOUS
62
7
10
159.3
20
155.625
11
159.3
21
165.625
0
ENDBLK
8
0
0
ENDSEC
0
SECTION
2
ENTITIES
0
LINE
5
49
8
0
6
BYLAYER
62
256
10
0
20
0
11
159.3
21
0
0
LINE
5
4A
8
0
6
BYLAYER
62
256
10
159.3
20
0
11
159.3
21
155
0
LINE
5
4B
8
0
6
BYLAYER
62
256
10
159.3
20
155
11
0
21
155
0
LINE
5
4C
8
0
6
BYLAYER
62
256
10
0
20
155
11
0
21
0
0
LINE
5
4D
8
0
6
BYLAYER
62
256
10
2.95
20
0
11
2.95
21
155
0
LINE
5
4E
8
0
6
BYLAYER
62
256
10
5.95
20
0
11
5.95
21
155
0
LINE
5
4F
8
0
6
BYLAYER
62
256
10
8.95
20
0
11
8.95
21
155
0
LINE
5
50
8
0
6
BYLAYER
62
256
10
11.95
20
0
11
11.95
21
155
0
LINE
5
51
8
0
6
BYLAYER
62
256
10
14.95
20
0
11
14.95
21
155
0
LINE
5
52
8
0
6
BYLAYER
62
256
10
17.95
20
0
11
17.95
21
155
0
LINE
5
53
8
0
6
BYLAYER
62
256
10
20.95
20
0
11
20.95
21
155
0
LINE
5
54
8
0
6
BYLAYER
62
256
10
23.95
20
0
11
23.95
21
155
0
LINE
5
55
8
0
6
BYLAYER
62
256
10
26.95
20
0
11
26.95
21
155
0
LINE
5
56
8
0
6
BYLAYER
62
256
10
29.95
20
0
11
29.95
21
155
0
LINE
5
57
8
0
6
BYLAYER
62
256
10
32.95
20
0
11
32.95
21
155
0
LINE
5
58
8
0
6
BYLAYER
62
256
10
35.95
20
0
11
35.95
21
155
0
LINE
5
59
8
0
6
BYLAYER
62
256
10
38.95
20
0
11
38.95
21
155
0
LINE
5
5A
8
0
6
BYLAYER
62
256
10
41.95
20
0
11
41.95
21
155
0
LINE
5
5B
8
0
6
BYLAYER
62
256
10
44.95
20
0
11
44.95
21
155
0
LINE
5
5C
8
0
6
BYLAYER
62
256
10
45.7
20
0
11
45.7
21
155
0
LINE
5
5D
8
0
6
BYLAYER
62
256
10
83.9
20
0
11
83.9
21
155
0
LINE
5
5E
8
0
6
BYLAYER
62
256
10
84.65
20
0
11
84.65
21
155
0
LINE
5
5F
8
0
6
BYLAYER
62
256
10
87.65
20
0
11
87.65
21
155
0
LINE
5
60
8
0
6
BYLAYER
62
256
10
90.65
20
0
11
90.65
21
155
0
LINE
5
61
8
0
6
BYLAYER
62
256
10
93.65
20
0
11
93.65
21
155
0
LINE
5
62
8
0
6
BYLAYER
62
256
10
96.65
20
0
11
96.65
21
155
0
LINE
5
63
8
0
6
BYLAYER
62
256
10
99.65
20
0
11
99.65
21
155
0
LINE
5
64
8
0
6
BYLAYER
62
256
10
102.65
20
0
11
102.65
21
155
0
LINE
5
65
8
0
6
BYLAYER
62
256
10
105.65
20
0
11
105.65
21
155
0
LINE
5
66
8
0
6
BYLAYER
62
256
10
108.65
20
0
11
108.65
21
155
0
LINE
5
67
8
0
6
BYLAYER
62
256
10
111.65
20
0
11
111.65
21
155
0
LINE
5
68
8
0
6
BYLAYER
62
256
10
114.65
20
0
11
114.65
21
155
0
LINE
5
69
8
0
6
BYLAYER
62
256
10
117.65
20
0
11
117.65
21
155
0
LINE
5
6A
8
0
6
BYLAYER
62
256
10
120.65
20
0
11
120.65
21
155
0
LINE
5
6B
8
0
6
BYLAYER
62
256
10
123.65
20
0
11
123.65
21
155
0
LINE
5
6C
8
0
6
BYLAYER
62
256
10
126.65
20
0
11
126.65
21
155
0
LINE
5
6D
8
0
6
BYLAYER
62
256
10
129.65
20
0
11
129.65
21
155
0
LINE
5
6E
8
0
6
BYLAYER
62
256
10
132.65
20
0
11
132.65
21
155
0
LINE
5
6F
8
0
6
BYLAYER
62
256
10
135.65
20
0
11
135.65
21
155
0
LINE
5
70
8
0
6
BYLAYER
62
256
10
138.65
20
0
11
138.65
21
155
0
LINE
5
71
8
0
6
BYLAYER
62
256
10
141.65
20
0
11
141.65
21
155
0
LINE
5
72
8
0
6
BYLAYER
62
256
10
144.65
20
0
11
144.65
21
155
0
LINE
5
73
8
0
6
BYLAYER
62
256
10
147.65
20
0
11
147.65
21
155
0
LINE
5
74
8
0
6
BYLAYER
62
256
10
150.65
20
0
11
150.65
21
155
0
LINE
5
75
8
0
6
BYLAYER
62
256
10
153.65
20
0
11
153.65
21
155
0
LINE
5
76
8
0
6
BYLAYER
62
256
10
156.65
20
0
11
156.65
21
155
0
TEXT
5
77
8
NOTES
6
BYLAYER
62
256
10
82.1875
20
-16.25
30
0
40
4
1
Front
50
0
41
1
51
0
7
ISO
71
0
72
1
11
82.1875
21
-16.25
31
0
210
0
220
0
230
1
0
TEXT
5
78
8
NOTES
6
BYLAYER
62
256
10
81.5625
20
166.875
30
0
40
4
1
Back
50
0
41
1
51
0
7
ISO
71
0
72
1
11
81.5625
21
166.875
31
0
210
0
220
0
230
1
0
TEXT
5
79
8
NOTES
6
BYLAYER
62
256
10
33.125
20
201.25
30
0
40
3
1
All dimensions are in milimeters
50
0
41
1
51
0
7
ISO
71
0
72
1
11
33.125
21
201.25
31
0
210
0
220
0
230
1
0
INSERT
5
7A
8
DIM
6
BYLAYER
62
256
2
*D1
10
0
20
0
30
0
41
1
42
1
43
1
50
0
70
1
71
1
44
0
45
0
0
INSERT
5
7B
8
DIM
6
BYLAYER
62
256
2
*D2
10
0
20
0
30
0
41
1
42
1
43
1
50
0
70
1
71
1
44
0
45
0
0
INSERT
5
7C
8
DIM
6
BYLAYER
62
256
2
*D3
10
0
20
0
30
0
41
1
42
1
43
1
50
0
70
1
71
1
44
0
45
0
0
INSERT
5
7D
8
DIM
6
BYLAYER
62
256
2
*D4
10
0
20
0
30
0
41
1
42
1
43
1
50
0
70
1
71
1
44
0
45
0
0
LINE
5
7E
8
HATCH
6
BYLAYER
62
256
10
0
20
155
11
159.3
21
155
0
LINE
5
7F
8
HATCH
6
BYLAYER
62
256
10
159.3
20
155
11
159.3
21
0
0
LINE
5
80
8
HATCH
6
BYLAYER
62
256
10
159.3
20
0
11
0
21
0
0
LINE
5
81
8
HATCH
6
BYLAYER
62
256
10
0
20
0
11
0
21
155
0
ENDSEC
0
EOF
